<svg class="animated" id="freepik_stories-water-drop" xmlns="http://www.w3.org/2000/svg" viewBox="0 0 500 500" version="1.1" xmlns:xlink="http://www.w3.org/1999/xlink" xmlns:svgjs="http://svgjs.com/svgjs"><style>svg#freepik_stories-water-drop:not(.animated) .animable {opacity: 0;}svg#freepik_stories-water-drop.animated #freepik--Splash--inject-10 {animation: 1s 1 forwards cubic-bezier(.36,-0.01,.5,1.38) fadeIn;animation-delay: 0s;}svg#freepik_stories-water-drop.animated #freepik--Leaves--inject-10 {animation: 1s 1 forwards cubic-bezier(.36,-0.01,.5,1.38) fadeIn;animation-delay: 0s;}svg#freepik_stories-water-drop.animated #freepik--Drop--inject-10 {animation: 1s 1 forwards cubic-bezier(.36,-0.01,.5,1.38) fadeIn,3s Infinite  linear floating;animation-delay: 0s,1s;}            @keyframes fadeIn {                0% {                    opacity: 0;                }                100% {                    opacity: 1;                }            }                    @keyframes floating {                0% {                    opacity: 1;                    transform: translateY(0px);                }                50% {                    transform: translateY(-10px);                }                100% {                    opacity: 1;                    transform: translateY(0px);                }            }        .animator-hidden { display: none; }</style><g id="freepik--background-complete--inject-10" class="animable animator-hidden" style="transform-origin: 250.005px 245.658px;"><path d="M396.1,289.11a34,34,0,0,0-1,14.76c1.54,10.33,9.33,18.52,11,28.7-.21,1.22-.46,2.45-.79,3.69a.14.14,0,0,1,0,.06s0,0,0,0h0s0,0,0,0,.05.09.09.11l.2-.42c.12-.26.23-.51.34-.77s.3-.72.44-1.1c0,0,.08-.16.08-.21,3.79-10.46.31-22.06-1.46-32.67-1-6.06-.58-12.19-1.49-18.22-.22-1.45-.2-4.18-2.28-3.63C398.85,280.1,396.69,287.17,396.1,289.11Z" style="fill: rgb(235, 235, 235); transform-origin: 401.435px 307.884px;" id="el4eim4ewke46" class="animable"></path><path d="M397.63,298c-.66,12.58,10.94,23.58,8.24,36.14-.08.35-.17.7-.26,1.05l-.21.73h0l-.1.3a.14.14,0,0,1,0,.06s0,0,0,0h0s0,0,0,0,.05.09.09.11h0a.12.12,0,0,0,.11-.08c.14-.37.27-.75.39-1.12a16.63,16.63,0,0,0,.64-2.78s0,0,0,0a40,40,0,0,0-.25-16.83c-1.44-7.14-3.26-14.06-4.56-21.28-.16-.89-.17-4.4-1.6-3.94C398.32,291.05,397.71,296.58,397.63,298Zm.62-1.87c.11-.71,1-5.43,2.19-4.94.7.29.79,3.87.9,4.38.42,1.94.83,3.88,1.25,5.82.9,4.09,1.81,8.17,2.7,12.26a53.59,53.59,0,0,1,1.39,15.12C406,317.79,396.42,307.58,398.25,296.16Z" style="fill: rgb(255, 255, 255); transform-origin: 402.454px 313.354px;" id="elze1vh60rwzg" class="animable"></path><path d="M393.09,409.86c0,.16.14.39.36.25,9.53-6.13,21.41-1.14,31.27-6.62a50.24,50.24,0,0,0,10.6-8.46,40.44,40.44,0,0,0,6.45-7.67c.23-.38,1.44-1.94,1.24-2.71-1.51-5.88-16.77,4.06-19.32,5.46-10,5.45-19.11,10.41-27.85,17.39-.92.71-1.83,1.46-2.73,2.24C393.08,409.75,393.08,409.8,393.09,409.86Z" style="fill: rgb(235, 235, 235); transform-origin: 418.058px 396.48px;" id="elkma8idtl1wd" class="animable"></path><path d="M393.09,409.86l1-.65c6.55-3.15,13.84-4.26,20.88-6s13.17-4.78,18.45-9.94c.94-.91,4.81-4.4,3.66-6.16-1-1.58-4.92,1.47-5.87,2-7.08,4-14,8-21.41,11.42a156.27,156.27,0,0,0-14,7c-.92.71-1.83,1.46-2.73,2.24C393.08,409.75,393.08,409.8,393.09,409.86Zm4.45-2.66c5.21-2.91,10.68-5.34,16.11-7.92q5.58-2.64,10.94-5.73c2-1.14,3.89-2.3,5.86-3.42,1-.56,2-1.11,3-1.64.5-.28,2.14-1.22,2.55-.46,1.12,2-9.82,12.43-23.39,15.11A85.25,85.25,0,0,0,397.54,407.2Z" style="fill: rgb(255, 255, 255); transform-origin: 415.181px 398.26px;" id="eljmwka26f02h" class="animable"></path><path d="M408.93,391.82a.08.08,0,0,0,0,.12.1.1,0,0,0,.14,0l.59-.58c.73-.71,1.42-1.43,2.1-2.16l.37-.41c.05,0,.08,0,.11,0,7.61-7.78,19.14-10.16,25.63-19.18A43.7,43.7,0,0,0,444,356.18c.6-2,3.53-8.27,1-9.89-2-1.25-5.13,1.48-6.43,2.64-4.15,3.68-7.09,8.82-10,13.49s-5.41,9.27-8.1,13.91a89,89,0,0,1-8.52,11.91C411,389.43,410,390.62,408.93,391.82Z" style="fill: rgb(235, 235, 235); transform-origin: 427.458px 368.969px;" id="el7ktt8hdz33k" class="animable"></path><path d="M408.93,391.82a.08.08,0,0,0,0,.12c.62-.65,1.25-1.3,1.88-1.94-.39.45-.77.91-1.15,1.36.73-.71,1.42-1.43,2.1-2.16.33-.39.67-.78,1-1.16a120.26,120.26,0,0,1,14-11.63,25.82,25.82,0,0,0,6.32-6.28c3.19-4.57,8.14-15.33,7.18-17s-2.94,1.81-3.49,2.56c-4.43,6-8,12.61-12.79,18.42-3.21,3.91-6.46,7.78-9.7,11.66q-1.23,1.19-2.4,2.43C411,389.43,410,390.62,408.93,391.82Zm30.67-38.25c.84.35-.44,3.24-.77,4a120.63,120.63,0,0,1-5.35,10.89c-2.1,3.72-5.1,6.18-8.54,8.59a90,90,0,0,0-8.23,6.54c3.22-3.65,6.41-7.33,9.39-11.16,2.46-3.18,4.61-6.57,6.79-9.95,1.09-1.7,2.18-3.37,3.34-5,.31-.44,2.61-4.21,3.37-3.89" style="fill: rgb(255, 255, 255); transform-origin: 424.642px 372.311px;" id="eltlcgbwwl3wc" class="animable"></path><path d="M352.21,439.84c0,.05,0,.08.08.08s.08,0,.1-.07c.05-.25.09-.48.14-.73q.25-1.32.45-2.64c0-.17,0-.32.07-.49a.21.21,0,0,0,.06-.08c1.68-9.57,9-17.13,9.2-27a39.15,39.15,0,0,0-2.26-12.94c-.59-1.8-1.57-7.86-4.28-7.75-2.1.08-3,3.67-3.4,5.18-1.2,4.8-.77,10.06-.54,14.95s.69,9.55,1.05,14.32a80.05,80.05,0,0,1-.26,13.06C352.5,437.06,352.36,438.44,352.21,439.84Z" style="fill: rgb(235, 235, 235); transform-origin: 356.936px 414.069px;" id="elj9j4n3ew85p" class="animable"></path><path d="M352.21,439.84c0,.05,0,.08.08.08.13-.79.26-1.59.4-2.37-.06.53-.11,1.05-.16,1.57q.25-1.32.45-2.64c0-.46.1-.91.16-1.37a109.55,109.55,0,0,1,4.46-15.63,22.79,22.79,0,0,0,1.49-7.8c0-5-1.74-15.39-3.26-16.1s-1.26,2.81-1.29,3.64c-.21,6.68.45,13.32-.12,20-.39,4.49-.83,9-1.26,13.48-.2,1-.39,2-.54,3C352.5,437.06,352.36,438.44,352.21,439.84Zm1.58-10c.53-4.3,1-8.62,1.28-12.94.21-3.58.08-7.16,0-10.75-.05-1.79-.1-3.58-.07-5.37,0-.49-.2-4.42.51-4.57s1.31,2.61,1.46,3.33c.66,3.52,1.24,7.15,1.55,10.72.33,3.8-.64,7.11-1.95,10.62A79.61,79.61,0,0,0,353.79,429.86Z" style="fill: rgb(255, 255, 255); transform-origin: 355.65px 417.703px;" id="elp6ur5nrqrm" class="animable"></path><path d="M351.11,447.77a1.41,1.41,0,0,0,.74-.25c9.74-3.73,20.4-3.9,30.19-7.63a28.37,28.37,0,0,0,11.38-7.49c1.31-1.49,5.84-6.59,4.84-9-3-7.13-35.87,15.32-46.68,23.39a1.88,1.88,0,0,0-.5.34C350.76,447.47,350.8,447.75,351.11,447.77Z" style="fill: rgb(235, 235, 235); transform-origin: 374.63px 434.896px;" id="elhl11kl1d8f" class="animable"></path><path d="M351.11,447.77l2.18-1.19c2.36-.95,4.75-1.86,7.19-2.62,3.86-1.22,7.83-1.94,11.75-2.93a37.37,37.37,0,0,0,16.43-8.78c1-.93,4-3.4,3.36-5.14-.6-1.58-3.06,0-3.93.39-12.36,5.9-24.39,12.68-36.38,19.35-.22.1-.42.2-.63.32C350.76,447.47,350.8,447.75,351.11,447.77Zm5.74-3.14q7-3.84,14.1-7.61,5.54-3,11.08-5.86c1.84-1,3.65-1.94,5.5-2.87.73-.37,3.54-1.8,3.81-.79s-1.68,2.92-2,3.28c-5.55,5.71-12.68,8.65-20.32,10.36A88.17,88.17,0,0,0,356.85,444.63Z" style="fill: rgb(255, 255, 255); transform-origin: 371.483px 437.096px;" id="el70d0ommuhqq" class="animable"></path><path d="M397.79,365.44a.39.39,0,0,0,0,.37.45.45,0,0,0,.42.3.54.54,0,0,0,.28,0,.22.22,0,0,0,.17-.06c4.6-4.5,11.63-8.69,16.36-13a49.92,49.92,0,0,0,9.13-11.51,67.35,67.35,0,0,0,6.73-15c.75-2.5,2.89-8.39.87-10.84-4.16-5.05-12.57,13.31-13.78,15.36C411.18,342.5,404.43,353.93,397.79,365.44Z" style="fill: rgb(235, 235, 235); transform-origin: 415.169px 340.477px;" id="elkcs9wlhch2g" class="animable"></path><path d="M397.75,365.81a.45.45,0,0,0,.42.3L399,365c1.8-2.12,3.6-4.23,5.52-6.25,3.12-3.29,6.7-6.13,9.71-9.51,5.24-5.91,15.09-24.7,12.26-26.57-1.47-1-3.3,2.89-3.84,3.81-2.11,3.62-3.76,7.48-5.93,11.08-2.26,3.78-4.74,7.42-7.22,11.06-3.82,5.61-7.66,11.19-11.42,16.85Zm3.77-4.55c3.4-4.95,6.75-9.94,10.12-14.92,2.32-3.44,4.61-6.91,6.68-10.51,1.15-2,2.19-4.1,3.22-6.18.51-1,1-2,1.59-3s2.34-4.35,3.17-3.07-1.67,6.79-2.25,8.08c-1,2.09-1.94,4.16-3,6.21a54.09,54.09,0,0,1-7.55,11.28c-3.05,3.36-6.6,6.21-9.67,9.55C403.05,359.54,402.27,360.39,401.52,361.26Z" style="fill: rgb(255, 255, 255); transform-origin: 412.37px 344.308px;" id="elyrkxqmtd4o" class="animable"></path><path d="M342.63,374.59c8.46,9.2,22.12,11.75,27.1,27.87,0,.07.09.06.12,0s0,0,0-.05c-.3-1.63-.67-3.25-1.1-4.86a70.34,70.34,0,0,0-11.71-24.16,52.79,52.79,0,0,0-11.43-11.2c-2.23-1.58-7.05-5.61-9.84-5C329.78,358.57,341.08,372.92,342.63,374.59Z" style="fill: rgb(235, 235, 235); transform-origin: 351.948px 379.818px;" id="eljsxtwoxc57" class="animable"></path><path d="M343.13,368.93c3.41,6.68,10.17,11,15.35,16.22A61.06,61.06,0,0,1,367.84,397c.7,1.81,1.37,3.63,2,5.48,0,0,0,0,0-.05-.3-1.63-.67-3.25-1.1-4.86a2.2,2.2,0,0,1-.15-.26,74.77,74.77,0,0,0-7-14.06,77.38,77.38,0,0,0-14-16.55c-.93-.84-4-4.48-5.6-3.55S342.65,368,343.13,368.93Zm-.57-5.19c1.16-.44,6.59,4.95,8.72,7.15a76.79,76.79,0,0,1,11.79,15.8,74.24,74.24,0,0,1,3.72,7.68,62.27,62.27,0,0,0-6.12-7.66c-4.67-5-10.51-9-14.74-14.37a21.8,21.8,0,0,1-2.8-4.57C342.84,367.12,341.5,364.13,342.56,363.74Z" style="fill: rgb(255, 255, 255); transform-origin: 355.633px 382.74px;" id="eluawiqm1qh49" class="animable"></path><path d="M353.12,324.4a57.85,57.85,0,0,0-.09,13.54,56.34,56.34,0,0,0,8.85,24.39,4.53,4.53,0,0,0,.26.4c.07.43.15.86.26,1.28a1.5,1.5,0,0,0,.06.29l0,.06h0a.11.11,0,0,0,.19-.09c0-.53,0-1.06,0-1.59.17-10.89,2.19-21.56.73-32.47-.33-2.38-1.88-18-7.33-15.31C353.57,316.15,353.4,322.13,353.12,324.4Z" style="fill: rgb(235, 235, 235); transform-origin: 358.291px 339.493px;" id="el4zdnwchk469" class="animable"></path><path d="M355.3,326.59c-.38,6.71,1.38,13.92,2.76,20.47a154.88,154.88,0,0,0,3.82,15.27c.12.41.26.83.39,1.23,0,.15.08.3.13.45s.05.23.08.35h0a.11.11,0,0,0,.19-.09c0-.53,0-1.06,0-1.59s-.22-.8-.33-1.2a128.44,128.44,0,0,1-.67-17.89c0-3.25,0-6.48-.3-9.71s-.42-6.45-1.39-9.44c-.42-1.3-1.3-3.88-3.13-2.92C355.34,322.33,355.38,325.17,355.3,326.59Zm4-2.26c1.15,3.52,1.32,7.67,1.57,11.36.25,3.53.21,7.08.17,10.62,0,3.75-.07,7.56.27,11.32-1.29-4.72-2.53-9.46-3.45-14.31-.72-3.79-1.35-7.6-1.79-11.43a28.18,28.18,0,0,1-.2-5.95,16.08,16.08,0,0,1,.29-2.1C356.63,321.65,358.78,322.73,359.3,324.33Z" style="fill: rgb(255, 255, 255); transform-origin: 358.959px 342.853px;" id="elpdz78k69ie8" class="animable"></path><path d="M420,296.1c0,.18-.07.35-.11.52a.32.32,0,0,0,.41.36.31.31,0,0,0,.23-.25c.07-.31.15-.63.22-.94h0c.05-.26.11-.5.17-.76.24-.43.49-.84.76-1.24,2.89-4.37,7.9-8.07,11.29-11.8a68.72,68.72,0,0,0,8.39-10.9,33.91,33.91,0,0,0,4.87-13c.15-1.25.74-4.4-.82-5.19-2-1-5,2.79-6.05,3.78a56.25,56.25,0,0,0-9.42,11.7C424.68,277,422,286.32,420,296.1Z" style="fill: rgb(235, 235, 235); transform-origin: 433.175px 274.864px;" id="elu3rrtx21jz" class="animable"></path><path d="M420.9,293.93a19,19,0,0,0-.88,2.17c0,.18-.07.35-.11.52a.32.32,0,0,0,.41.36,2.65,2.65,0,0,1,.12-.37l.33-.82h0c.29-.68.6-1.34.93-2A45.24,45.24,0,0,1,426,287c2.77-3.7,5.68-7.3,8.31-11.1,1.32-1.91,11.48-16.6,7.48-18-.75-.27-1.47.74-1.88,1.15a31.29,31.29,0,0,0-3.64,4.92c-2.55,4-5,8.07-7.21,12.22A130.23,130.23,0,0,0,420.9,293.93Zm7.26-15.17c1.94-3.67,4-7.28,6.14-10.83,1.05-1.73,2.09-3.47,3.23-5.15.57-.83,3.42-4.55,4.2-4.06,1.15.72-1.57,6.52-2.4,8.08-.94,1.78-2,3.52-3.05,5.22-2.17,3.43-4.57,6.71-7,9.94-2.17,2.86-4.77,5.89-6.8,9.17A129.23,129.23,0,0,1,428.16,278.76Z" style="fill: rgb(255, 255, 255); transform-origin: 431.311px 277.425px;" id="el4wrvuhf60nn" class="animable"></path><path d="M385.13,347.22c.05.17.11.33.17.5a.32.32,0,1,0,.6-.23c-.09-.3-.19-.62-.28-.93h0c-.08-.26-.15-.5-.23-.75a14.24,14.24,0,0,1,0-1.46c.3-5.23,2.77-10.94,3.84-15.87a68.9,68.9,0,0,0,1.79-13.64,33.86,33.86,0,0,0-2.32-13.69c-.49-1.16-1.56-4.18-3.31-4.08-2.21.13-2.92,4.92-3.34,6.3a56.61,56.61,0,0,0-2.28,14.85C379.55,328.31,381.91,337.76,385.13,347.22Z" style="fill: rgb(235, 235, 235); transform-origin: 385.401px 322.497px;" id="elsp00lzcu74" class="animable"></path><path d="M384.8,344.9a19.93,19.93,0,0,0,.33,2.32c.05.17.11.33.17.5a.32.32,0,0,0,.53.11,2.74,2.74,0,0,1-.09-.39l-.12-.88h0c-.09-.74-.15-1.47-.19-2.21a44.6,44.6,0,0,1,.28-8c.54-4.59,1.25-9.16,1.62-13.78.19-2.31,1.6-20.11-2.56-19.32-.79.14-.91,1.38-1,1.94a30.38,30.38,0,0,0-.68,6.09c-.21,4.72-.23,9.45-.11,14.18A129.9,129.9,0,0,0,384.8,344.9Zm-1.33-16.77c-.17-4.15-.2-8.3-.13-12.45,0-2,.07-4.06.22-6.08.07-1,.67-5.65,1.59-5.62,1.35,0,1.91,6.43,2,8.2.07,2,.05,4,0,6-.16,4.06-.58,8.1-1.1,12.13-.44,3.56-1.17,7.48-1.28,11.35A134.17,134.17,0,0,1,383.47,328.13Z" style="fill: rgb(255, 255, 255); transform-origin: 385.309px 325.576px;" id="elbkkro3xicee" class="animable"></path><path d="M361.35,354.53a253.34,253.34,0,0,0,5.74,28c1.93,7.13,3.88,14.36,4.15,21.78.33,8.86-2.23,18.71-6.73,27.21q3.9-4.37,7.72-8.84c5.18-6.09,10.34-12.33,14-19.47.36-.7.69-1.42,1-2.14a.2.2,0,0,1,0-.17,96.42,96.42,0,0,0,1.86-28.71,79.32,79.32,0,0,0-6.26-14.36c-2.6-4.73-5.09-9.32-6.47-14.58-.08-.29.34-.48.46-.17,2.65,6.94,8.1,13.7,11.3,20.91q-.27-1.79-.6-3.57c-2.08-11.4-6-22.86-1.86-34.26.14-.38.69-.12.57.26-3.93,12.69,2.25,26.68,4.08,39.29,1.37,9.38,1.83,19.49-.44,28.84a152.61,152.61,0,0,0,4.17-15.78c7.18-32,15.48-63.81,31-92.89.15-.28.61-.09.46.21C409.62,317.6,403.31,351.9,395,385.91c-.09.38-.2.77-.29,1.15a64,64,0,0,1,10-12.09.2.2,0,0,1,.31.26c-4.56,5.84-8,12.24-12.15,18.34a66.45,66.45,0,0,1-5.95,13.69,108.85,108.85,0,0,1-10.59,14.49c6.49-5.45,13.05-10.83,19.16-16.76a291.7,291.7,0,0,0,26-28.57c.11-.15.33,0,.22.18a242.57,242.57,0,0,1-25.85,30.84c-8.09,8-16.75,16.24-26.45,22.41-9.28,10.68-19.2,21.41-30.93,29.23a.51.51,0,0,1-.6-.83c2.15-1.92,4.25-3.86,6.33-5.83,2-4.53,4.83-8.67,6.64-13.36a73.41,73.41,0,0,0,4.3-17c.06-.43.68-.32.66.1-.49,8-2.28,17.77-6.53,25.38,3-2.94,5.88-5.91,8.73-8.95,7.62-11.64,12.59-25.47,10.92-39.4-.86-7.15-2.91-14.07-4.59-21.05a155.71,155.71,0,0,1-3.51-23.53A.27.27,0,0,1,361.35,354.53Z" style="fill: rgb(235, 235, 235); transform-origin: 381.599px 372.46px;" id="eljyu9rk4dc8" class="animable"></path><path d="M154.84,309.41c1.65,4.53,1.31,10.12,1.11,14.84a117.92,117.92,0,0,1-1.88,16.12c-.9,5-2,9.88-3.27,14.76l0,.13-.24,1c-.05.4-.1.8-.17,1.21a.23.23,0,0,1-.21.2.2.2,0,0,1-.25-.22c0-.22.05-.44.06-.66.8-9.16-4.49-17.53-4.81-26.6-.17-5,1-10,2-14.82.51-2.69.65-6.18,1.69-8.71.28-.67.34-1.39,1.09-1.75C152.2,303.77,154.27,307.83,154.84,309.41Z" style="fill: rgb(235, 235, 235); transform-origin: 150.643px 331.194px;" id="elcgwtaiq4gu" class="animable"></path><path d="M152.67,312.81c-1.44-1.19-2.28,2.1-2.56,3-1.89,6.05-3,13.25-1.87,19.52,1.18,6.88,2.43,13.77,1.92,20.74l-.21.68c0,.22,0,.44-.06.66a.2.2,0,0,0,.25.22c0-.14.05-.27.07-.41.2-.65.38-1.3.55-2l0-.13a132,132,0,0,0,2.41-14.29,92.37,92.37,0,0,0,1.08-20.2c-.13-1.63-.32-3.26-.61-4.87C153.53,315,153.38,313.38,152.67,312.81Zm.81,4.08c.26,1.7.43,3.41.53,5.14a94.22,94.22,0,0,1-1,17.75A130.17,130.17,0,0,1,150.45,355a53.53,53.53,0,0,0-.51-11.92c-.41-3-1-5.9-1.48-8.87a33.56,33.56,0,0,1,.36-10,41.9,41.9,0,0,1,2-9.27c.23-.58.9-1.89,1.41-1.8C153.14,313.3,153.39,316.22,153.48,316.89Z" style="fill: rgb(255, 255, 255); transform-origin: 151.091px 335.095px;" id="el6z694jy2j8l" class="animable"></path><path d="M113.69,379.4s0,0,0,0" style="fill: rgb(235, 235, 235); transform-origin: 113.69px 379.4px;" id="elvir5t5p5z6l" class="animable"></path><path d="M150.38,442.7a.23.23,0,0,1,.11.27h0a.25.25,0,0,1-.19.18.31.31,0,0,1-.19,0c-5.61-2.84-11-7.35-17.46-7.67-5.08-.27-9.45.36-14.27-1.72a38.48,38.48,0,0,1-12.92-9.27,39.69,39.69,0,0,1-4.4-5.82c-.61-1-2.62-3.46-2.34-4.74,1.31-6,19,4.64,21.35,6.07,10.4,6.33,21,13.44,29.66,22a.1.1,0,0,1,0,.1.14.14,0,0,1-.07.1Z" style="fill: rgb(235, 235, 235); transform-origin: 124.597px 427.638px;" id="elym5ws8qowzb" class="animable"></path><path d="M150.38,442.7l-.69-.47a.14.14,0,0,0,.07-.1c-5.75-4.36-11.85-8.32-18-12.13-6.58-4.08-13.32-8.27-20.39-11.46-1-.44-5-2.84-5.82-1.28s3.33,5.12,4.22,5.92c5.25,4.69,12.09,6.84,18.71,8.78,4.29,1.27,8.51,2.47,12.36,4.85,3.23,2,6.22,4.34,9.43,6.35a.25.25,0,0,0,.19-.18c-1.65-1-3.23-2.19-4.81-3.32l4.81,3.31A.23.23,0,0,0,150.38,442.7Zm-14.49-8.85c-6.43-2.52-13.34-3.62-19.54-6.79a27.35,27.35,0,0,1-8-5.94c-.43-.47-2.53-2.58-2.06-3.41.32-.56,2,0,2.24.05a50.07,50.07,0,0,1,5.35,2.38c6.06,3.09,11.94,6.59,17.72,10.17,3.21,2,6.35,4.07,9.46,6.19A30.62,30.62,0,0,0,135.89,433.85Z" style="fill: rgb(255, 255, 255); transform-origin: 127.96px 429.95px;" id="el7inhujiea37" class="animable"></path><path d="M124.8,319.33c.7,5.38-.38,11-1.85,16.17-3.4,12-10,23.08-12,35.42-.09.49-.16,1-.22,1.45.11.64,0,.49-.18-.26h0c-.9-3.28-4-17.75-2.59-28.13.9-6.48,3.12-12.6,5.37-18.71,1.28-3.49,2.53-7,3.83-10.46.42-1.11,1-4.3,2.7-4.54C123.07,309.77,124.52,317.22,124.8,319.33Z" style="fill: rgb(235, 235, 235); transform-origin: 116.308px 341.509px;" id="elu50h7lmrpc9" class="animable"></path><path d="M119.15,320.41a1.09,1.09,0,0,0-1.45.38,5.55,5.55,0,0,0-.71,2.12l-1,3.8c-2.26,8.77-5.31,17.71-6.15,26.76a74.7,74.7,0,0,0,.64,18c0,.2,0,.4,0,.59h0c.2.75.29.9.18.26.06-.48.13-1,.22-1.45,0-.67,0-1.34.06-2A55.36,55.36,0,0,1,114,355.3a137.33,137.33,0,0,0,6.18-25.82,26.84,26.84,0,0,0,.2-5.94C120.31,322.65,120.09,320.89,119.15,320.41Zm.78,2.83a8.31,8.31,0,0,1,.13,1.31,23.84,23.84,0,0,1-.06,2.8,66.13,66.13,0,0,1-.91,6.7,186,186,0,0,1-6.13,23.2,49.19,49.19,0,0,0-2.4,11.63,98.22,98.22,0,0,1-.5-10c0-8.54,2.41-16.63,4.51-24.83.53-2,1.05-4.07,1.58-6.09.25-1,.51-2,.78-3.05l.38-1.53c.26-1,.11-1.44,1.25-1.76C120,321.26,119.74,322.06,119.93,323.24Z" style="fill: rgb(255, 255, 255); transform-origin: 115.014px 346.499px;" id="el7c8ymm65ydd" class="animable"></path><path d="M133.32,369.36a67,67,0,0,1,3.27,12.28c1.4,8.4.11,18.1,2.31,26.47.2.54.37,1.1.53,1.66.06.21.11.42.16.63a.11.11,0,0,1-.2.07c-.17-.35-.35-.71-.53-1.06,0,0,0,0,0,0l-.28-.56c-4.16-8.14-9.5-15.59-11.27-24.74-1.1-5.62-2.84-21.14.88-22.32C129.83,361.25,132.42,367,133.32,369.36Z" style="fill: rgb(235, 235, 235); transform-origin: 132.759px 386.136px;" id="elbsji3q8o6r8" class="animable"></path><path d="M130,370.19c-.89.41-.86,2.15-.91,2.88a36,36,0,0,0,.2,5.78,57.47,57.47,0,0,0,2.1,10.55,114.09,114.09,0,0,0,7.23,19.43l.28.56s0,0,0,0c.18.35.36.71.53,1.06a.11.11,0,0,0,.2-.07c-.05-.21-.1-.42-.16-.63-2.74-7.17-3.89-14.71-4.84-22.35C134.38,385.71,133,368.74,130,370.19Zm2.77,6.88c.27,1.6.49,3.2.7,4.82.5,3.75.93,7.52,1.47,11.27a85.36,85.36,0,0,0,2.56,12.12,144.9,144.9,0,0,1-5.1-13.84,77.29,77.29,0,0,1-2.3-9.44,42.07,42.07,0,0,1-.54-5.25c0-.85-.39-5.71.62-6.12C131.38,370.11,132.61,376.38,132.72,377.07Z" style="fill: rgb(255, 255, 255); transform-origin: 134.341px 390.3px;" id="el0n3mn7pewly9" class="animable"></path><path d="M168.81,352.79c2.05,2.52,1.08,7.55,0,10.21-1.59,3.8-4.49,6.77-7.68,9.29-4.62,3.66-9.78,6.48-13.68,11s-2.62,3.12-5.32,8.85c0,.12-.16.12-.25,0a1.1,1.1,0,0,1-.17-.91c0-.05,0-.11,0-.16,2.49-9.42,7.33-16.84,13.74-24.19,3.64-4.17,5.83-9.45,9.61-13.47C166.46,351.93,167.39,351.05,168.81,352.79Z" style="fill: rgb(235, 235, 235); transform-origin: 155.843px 372.03px;" id="ell1yoae1v4kh" class="animable"></path><path d="M166.63,357.75c-1.39-.66-3.13,2.15-3.84,3.17a58.56,58.56,0,0,1-6.62,8.42,71.59,71.59,0,0,0-6.47,6.91,47.49,47.49,0,0,0-7,12.62,25.13,25.13,0,0,0-1,2.37,1.1,1.1,0,0,0,.17.91c0-.11.06-.2.1-.31a32.42,32.42,0,0,1,11.42-14.73c5.28-4,10.25-8.44,13.07-14.58C167,361.44,167.91,358.36,166.63,357.75Zm-.22,4a26.24,26.24,0,0,1-1.57,3.08,32.59,32.59,0,0,1-3.73,5,57.39,57.39,0,0,1-8.33,7.23,35.06,35.06,0,0,0-8.7,9.26,47.93,47.93,0,0,1,6.55-10.71c2.38-2.91,5.29-5.28,7.73-8.11,1.13-1.31,2.13-2.71,3.13-4.11.53-.77,1.06-1.53,1.6-2.29s2-3.08,3-2.88C167.39,358.48,166.59,361.33,166.41,361.75Z" style="fill: rgb(255, 255, 255); transform-origin: 154.474px 374.9px;" id="elni9j1uizq2c" class="animable"></path><path d="M82.49,329c8.33,9.41,16.07,19.3,23.44,29.47a.32.32,0,0,1,0,.39.09.09,0,0,1,0,.06l.14.2a.14.14,0,0,1,0,.19l0,0h0a.17.17,0,0,1-.15,0c-5.19-5.09-10.08-9.86-16.61-13.23-6-3.07-11.88-5.63-17.08-10-4.43-3.75-17-22.22-15-26.63C58.51,306.48,75.85,321.53,82.49,329Z" style="fill: rgb(235, 235, 235); transform-origin: 81.5616px 334.197px;" id="el6gqxn0cmrhc" class="animable"></path><path d="M72.17,322.73c-1.09-1.05-4.28-5.19-6.31-4.35s1.21,5,1.81,5.9a60,60,0,0,0,7.41,9.17c2.81,2.74,6.15,4.55,9.39,6.69,8,5.29,15,12.16,21.46,19.21h0l0,0a.14.14,0,0,0,0-.19l-.14-.2a.09.09,0,0,0,0-.06C95.88,345.79,84,334.19,72.17,322.73Zm33.06,35.73a134.68,134.68,0,0,0-14.17-13.79c-5.88-4.92-13-8.09-18-13.94a45.82,45.82,0,0,1-6.67-9.24c-.22-.44-1-1.95-.49-2.54s1.93.13,3.73,1.77c1.48,1.37,2.89,2.82,4.33,4.23,5.69,5.55,11.34,11.13,16.79,16.9Q98.29,349.88,105.23,358.46Z" style="fill: rgb(255, 255, 255); transform-origin: 85.5832px 338.809px;" id="elt90yb5aybg" class="animable"></path><path d="M117.15,398a.18.18,0,0,1,0,.14.22.22,0,0,1-.28.14l-.79-.25a.08.08,0,0,1-.07,0c-6-.77-10.8.24-16.53,1.71a26.4,26.4,0,0,1-12.89,0,43.72,43.72,0,0,1-13-5.88c-1.64-1-6.87-3.39-6-6.26,1.4-4.73,17.29,1.43,20,2.31a123,123,0,0,0,14.87,4c5,1,10,1.78,14.6,3.94A.16.16,0,0,1,117.15,398Z" style="fill: rgb(235, 235, 235); transform-origin: 92.3286px 393.185px;" id="elamnf2ngadq" class="animable"></path><path d="M114,397.24h0c-2.88-.66-5.74-1.44-8.65-1.94-3.25-.57-6.57-.5-9.83-1.06-6.11-1.06-11.92-3.28-18-4.62-.79-.17-2.34-.48-1.93.86.17.58,1,1.06,1.46,1.37a27.42,27.42,0,0,0,4.26,2.49c5,2.41,10.86,4.16,16.49,3.91,6.51-.3,12.85-1.53,19.29-.14a.18.18,0,0,0,0-.14A20.08,20.08,0,0,0,114,397.24Zm-14.11.39a35.89,35.89,0,0,1-20.5-4.82c-.58-.35-2.1-1.32-2.63-1.76s-1.23-1.32.69-1.08a12.25,12.25,0,0,1,1.33.32c1.56.39,3.11.83,4.66,1.27,3.31.94,6.6,1.93,10,2.64a61.07,61.07,0,0,0,9,1.07,74.8,74.8,0,0,1,10.9,1.87C108.91,396.6,104.31,397.28,99.88,397.63Z" style="fill: rgb(255, 255, 255); transform-origin: 96.3132px 393.869px;" id="elnhxrku5ltxk" class="animable"></path><path d="M100,385.05a.42.42,0,0,1,0,.27.27.27,0,0,1,0,.14.4.4,0,0,1-.1.15l0,0a.43.43,0,0,1-.42,0,18.34,18.34,0,0,1-2.54-1.15c-9.87-3.77-20-7.74-28-14.71a64.82,64.82,0,0,1-10.73-12.18c-1.52-2.18-5.68-6.78-4.3-9.84s4.07-1.1,5.92.16A138.92,138.92,0,0,1,73.52,358.4,76.54,76.54,0,0,1,85.08,371c4,5.51,7.91,11.22,14.57,13.72A.49.49,0,0,1,100,385.05Z" style="fill: rgb(235, 235, 235); transform-origin: 76.828px 365.883px;" id="elbqwf450kgd" class="animable"></path><path d="M81.75,371.09a167.31,167.31,0,0,0-18-16.34c-.82-.65-3.2-2.34-3.57-.45-.43,2.24,2.87,4.87,4.13,6.2a126.55,126.55,0,0,0,15.44,14,71.36,71.36,0,0,0,20.22,10.95.27.27,0,0,0,0-.14c-12-4.43-22.31-12.2-31.35-21.05-2.18-2.14-4.38-4.3-6.38-6.61-.32-.37-2.14-2.86-1.43-3.54s3.2,1.44,3.5,1.7c1.44,1.19,2.87,2.38,4.31,3.59a198.66,198.66,0,0,1,15.2,14.53A48.19,48.19,0,0,0,100,385.32a.42.42,0,0,0,0-.27C92.74,381.86,87.15,376.84,81.75,371.09Z" style="fill: rgb(255, 255, 255); transform-origin: 80.082px 369.441px;" id="el22yg5ua1day" class="animable"></path><path d="M81.83,282.39a47.94,47.94,0,0,1,7.8,14.79c2.4,8.33,2.26,17.05,3.46,25.58,0,0,0,.07,0,.1a58.06,58.06,0,0,0,1.35,6.88c.13.49.26,1,.41,1.45a.33.33,0,0,1,0,.3.35.35,0,0,1-.19.1.3.3,0,0,1-.21,0h0a.42.42,0,0,1-.24-.23c-.24-.69-.45-1.37-.66-2.07a.15.15,0,0,1-.1-.09c-5.1-10.65-10.88-21.4-16.66-31.93a84.77,84.77,0,0,1-6.58-14.57c-1-3-2.17-7.62,0-10.4a.67.67,0,0,1,.58-.31C75.59,272.8,79.2,278.79,81.83,282.39Z" style="fill: rgb(235, 235, 235); transform-origin: 81.9346px 301.799px;" id="eltzdc945k5tn" class="animable"></path><path d="M76.51,283.06c-2.3-.74-1.83,2-1.46,3.37a94.42,94.42,0,0,0,4.07,10.75q2.41,6,5,11.84c3.27,7.4,7.83,14.76,10.26,22.52,0,0,0,0,0,0h0a.3.3,0,0,0,.21,0,.35.35,0,0,0,.19-.1l-.36-1.75c-.46-2.29-.9-4.59-1.35-6.88,0,0,0-.07,0-.1-2.18-11.05-4.58-22-10.39-32.12C81.35,288.28,79.35,284,76.51,283.06Zm6.89,9.66A80.18,80.18,0,0,1,90.73,313C92,318.54,92.86,324.2,94,329.8c-1.6-4.5-4-8.78-6-13.13q-4.77-10.26-9-20.76c-.68-1.68-1.35-3.36-2-5.06-.58-1.5-1.82-3.84-1.83-5.48,0-3.17,2.64-1,3.5-.08A17.92,17.92,0,0,1,80.65,288C81.63,289.54,82.55,291.12,83.4,292.72Z" style="fill: rgb(255, 255, 255); transform-origin: 84.7608px 307.247px;" id="el1stkx44jhlr" class="animable"></path><path d="M152.24,339.82a231.56,231.56,0,0,1-6.3,30.75c-2.59,9.27-5.28,18.53-6.54,28.09-1.67,12.7-.52,26.61,5.95,37.65a149.44,149.44,0,0,1-25.49-42.61c-10.43-26.19-19.88-53.11-32.54-78.34-.21-.42-.79-.1-.64.32,5.19,13.78,11.29,27.21,16.6,40.95s10.17,27.45,15.68,41q.9,2.2,1.86,4.35c-8.08-10-19.94-17.4-31.57-21.68-.15-.05-.21.17-.07.23a82,82,0,0,1,22.43,14.91c5.8,5.34,10.2,11.53,14.87,17.79a126.06,126.06,0,0,0,44,45.93.18.18,0,0,0,.19-.3,126.64,126.64,0,0,1-20.36-17.09c-10.4-13.77-10.89-32.16-7.79-48.87,1.63-8.76,3.95-17.36,6-26s4.41-17.93,4.18-27A.25.25,0,0,0,152.24,339.82Z" style="fill: rgb(235, 235, 235); transform-origin: 128.693px 387.169px;" id="ela70jznrnhmk" class="animable"></path><path d="M352.44,218.3c.19-.05,10.44-11.18,34-18.75l2.76-.86c3.78-1.11,7.91-2.13,12.38-3l1-.19c.79-.16,1.61-.3,2.44-.44,7.49-1.28,14.48-5.47,20-10.83,5.84-5.63,8.32-13,10.4-20.63,2.36-8.67,5.16-19.47,14.62-22.9.81-.29,1.64-.55,2.45-.76,1.06-.28,2.12-.51,3.17-.71,4.92-.91,9.76-1.22,14.13-3.7a17,17,0,0,0,2.9-2l.63-.58c5.49-5.22,8.29-12.73,10.42-19.84a202.94,202.94,0,0,0,6.39-28.93c1.43-9.75,1-20.59,5.8-29.45A31.68,31.68,0,0,1,500,48.84V42.52h0c-6.88,2.94-13.77,5.84-20.56,9-1,.47-2,.93-3,1.42-4.09,1.94-8.13,4-12.1,6.17a119.76,119.76,0,0,0-28.07,21.41c-.65.66-1.29,1.33-1.93,2q-.48.48-.93,1c-1.07,1.13-2.11,2.3-3.15,3.49-.73.83-1.46,1.69-2.18,2.56l-.23.27c-11.4,13.57-24.56,25.54-38,37-2.14,1.83-4.36,3.62-6.48,5.5-1.43,1.25-2.81,2.53-4.09,3.89a34.82,34.82,0,0,0-3.52,4.25c-.52.76-1,1.52-1.47,2.34-.16.28-.31.55-.45.83-3.49,6.62-4.92,14.41-6.88,21.54C362,182.88,357.05,200.56,352.44,218.3Z" style="fill: rgb(235, 235, 235); transform-origin: 426.22px 130.41px;" id="el59d39vxjdzh" class="animable"></path><path d="M364.39,192.07c6.58-16.67,11.84-33.92,23.95-47.64l.39-.43c-2.56,9.88-2.64,20.22-5.75,30-.13.37.46.62.61.26,4.37-9.79,3.78-20.94,6.06-31.29,10.34-11.21,23.32-19.74,34-30.65,4.9-5,9.62-10.13,14.37-15.22-9.75,21.24-12.38,45.42-26.46,64.87-.23.31.29.69.53.4,8.16-9.87,12.89-21.8,16.82-33.87,3.74-11.5,7.17-23,11.74-34.21q1.86-2,3.75-3.93c4.45-4.59,9-9.07,13.9-13.28.14-.12.28-.25.43-.36q2.32-2,4.71-4c5.39-4.4,10.94-8.57,16.6-12.58-2.32,4.72-3.4,10.08-4.31,15.36-.42,2.34-.8,4.66-1.24,6.91a110.34,110.34,0,0,1-13.37,34.28.53.53,0,0,0,.92.54,92.21,92.21,0,0,0,10.7-21.38,232.36,232.36,0,0,1-5.06,22.82.39.39,0,0,0,.74.21,99.18,99.18,0,0,0,5.69-27.31c.48-1.61.92-3.22,1.31-4.85,1.14-4.81,1.9-9.6,2.9-14.3a62.54,62.54,0,0,1,4.48-14.23q5.16-3.57,10.42-7c2.25-1.46,4.52-2.9,6.79-4.33V43.91c-.93.54-1.85,1.11-2.78,1.67q-4,2.43-8,5c-6.48,4.16-12.86,8.53-19,13.17-.86.63-1.72,1.28-2.56,1.93-2.5,1.92-4.95,3.88-7.38,5.88-.57.12-1.14.26-1.71.41-1.13.27-2.26.58-3.38.92a84.34,84.34,0,0,0-20.95,9.68q-.48.48-.93,1c-1.07,1.13-2.11,2.3-3.15,3.49a157.83,157.83,0,0,1,23.24-12l.75-.31c1.49-.62,3-1.22,4.52-1.81-2.79,2.34-5.53,4.74-8.19,7.22-3.22,3-6.28,6.12-9.25,9.33-8.63,9.31-16.57,19.26-25.72,28.07-2.2,2.13-4.47,4.15-6.78,6.16a93.76,93.76,0,0,0-25.49,8.69c-1.43,1.25-2.81,2.53-4.09,3.89a146.45,146.45,0,0,1,28.34-11.53c-9.22,7.9-18.81,15.37-25.81,25.48-8.61,12.36-14.22,27.18-18.46,41.55C363,192.5,364.1,192.77,364.39,192.07Z" style="fill: rgb(219, 219, 219); transform-origin: 431.604px 118.195px;" id="elbth3z26e3he" class="animable"></path><path d="M196.8,186.82c-.21,0-14.27-9.87-42.24-12.54l-3.28-.28c-4.45-.32-9.28-.45-14.44-.34l-1.14,0c-.93,0-1.87.06-2.81.11-8.62.39-17.38-2.56-24.82-7.16-7.83-4.82-12.36-12.38-16.51-20.33C86.84,137.26,81.1,126,69.8,124.47c-1-.13-2-.22-2.9-.26-1.25,0-2.49,0-3.7,0-5.57.18-10.92,1-16.26-.59l-.29-.08A20.3,20.3,0,0,1,42.94,122c-.28-.15-.56-.32-.84-.48C34.75,117,29.83,109.38,25.74,102A232.19,232.19,0,0,1,11.64,71.5c-1.31-3.45-2.41-7.07-3.57-10.7-.3-.92-.6-1.85-.91-2.77C5.34,52.62,3.24,47.31,0,42.73V32.14L68,52.75c.88.54,1.76,1.1,2.63,1.67s1.75,1.16,2.62,1.77c.44.27.85.56,1.27.86,1.45,1,2.9,2,4.34,3.11,1,.75,2,1.52,3,2.31,16,12.39,33.61,22.53,51.43,32.05,2.82,1.5,5.71,2.94,8.53,4.51,1.88,1,3.71,2.12,5.47,3.32a40.09,40.09,0,0,1,4.92,3.87,30.86,30.86,0,0,1,2.21,2.22c.23.27.47.54.7.82,5.47,6.49,8.93,14.77,12.84,22.2C177.67,149.86,187.39,168.27,196.8,186.82Z" style="fill: rgb(235, 235, 235); transform-origin: 98.4px 109.48px;" id="elu6qgcb0yirl" class="animable"></path><path d="M177.2,160.64c-11.33-16.89-21.35-34.73-38.1-47l-.53-.38c5.23,10.33,7.84,21.77,13.65,31.89.23.38-.36.79-.62.43-7.21-9.78-9.26-22.29-14.29-33.2-14.17-9.92-30.63-16.23-45.11-25.73-6.64-4.34-13.12-8.9-19.61-13.39,16,21.18,24.74,47.35,45.05,65.49.32.28-.16.84-.48.57-11.44-9-19.58-21-26.86-33.46C83.36,94,76.77,82.08,69,70.79A276.31,276.31,0,0,0,45.25,56c-9.18-5-18.6-9.4-28.19-13.45,5.37,6.73,8.17,15.57,11.55,23.32a125.22,125.22,0,0,0,23.13,34.76c.53.58-.33,1.34-.88.82a104.46,104.46,0,0,1-17-21.1A263.76,263.76,0,0,0,45,104.41c.27.5-.47.87-.77.42A112.69,112.69,0,0,1,31.25,75.94c-.92-1.67-1.8-3.35-2.62-5.07C23.7,60.59,20.47,50,13.52,41.06Q6.8,38.28,0,35.74v-3.3c1.5.52,3,1.07,4.48,1.62A340.92,340.92,0,0,1,41.67,50.29a93.58,93.58,0,0,1,31.53,5.9c.44.27.85.56,1.27.86,1.45,1,2.9,2,4.34,3.11a184.49,184.49,0,0,0-35-8.75c3.65,1.92,7.28,3.92,10.83,6,16.74,9.86,31.31,22.83,47.82,33,3,1.82,6,3.53,9,5.18A106.82,106.82,0,0,1,141.82,99c1.88,1,3.71,2.12,5.47,3.32a166.16,166.16,0,0,0-34.21-5.9c12.13,6.52,24.56,12.47,34.78,22,12.54,11.63,22.36,26.69,30.54,41.59C178.83,160.78,177.68,161.34,177.2,160.64Z" style="fill: rgb(219, 219, 219); transform-origin: 89.2472px 96.6997px;" id="els9odm1a7s5c" class="animable"></path></g><g id="freepik--Plants--inject-10" class="animable animator-hidden" style="transform-origin: 249.978px 422.715px;"><path d="M387,431.07c-3.36-4.34-7.2-9.13-7-14.91.21-5.33,2-11.23,6.9-14.07,1.39-.81,2.41-1.09,2.86.71.69,2.74-.48,6.06-1.07,8.72a55.35,55.35,0,0,0-1.41,10.41c-.08,2.46.1,4.93.08,7.4,0,.31,0,.62,0,.93,0,.11,0,.23,0,.35l.09.13a.26.26,0,0,1,0,.25.19.19,0,0,1,0,.09A.29.29,0,0,1,387,431.07Z" style="fill: rgb(55, 71, 79); transform-origin: 384.982px 416.321px;" id="eloflvab3o5" class="animable"></path><path d="M387.48,431.08c-2.76-4-6-8.07-5.58-13.12a22.43,22.43,0,0,1,1.81-6.82c.41-1,1.63-3.93,2.91-4,2.32-.12-.78,9.2-.93,10.29a23.73,23.73,0,0,0,1.73,11.9c0,.31,0,.62,0,.93a26.33,26.33,0,0,1-2.18-8.3c-.34-4,1-7.29,1.72-11.12.16-.83.81-3.44-.62-3.23-.93.14-2.14,3-2.4,3.61a22.38,22.38,0,0,0-1.73,6.47c-.48,5.09,2.65,9.24,5.33,13.3A.19.19,0,0,1,387.48,431.08Z" style="fill: rgb(255, 255, 255); transform-origin: 384.702px 419.109px;" id="el4ag7nraryyn" class="animable"></path><path d="M386.07,435.49l-.59.27h0a.13.13,0,0,1-.15,0,.23.23,0,0,1-.08-.3.19.19,0,0,1,.11-.08l.08,0,.19-.06v0l0-.05c2.38-2.91,5.23-5.43,7.58-8.38s4.3-5.8,6.77-8.44c1.55-1.67,9.74-9.48,11.49-4.65.78,2.14-.92,5.2-2,7a23.43,23.43,0,0,1-5.48,6.18C398.71,431.19,392.2,432.79,386.07,435.49Z" style="fill: rgb(55, 71, 79); transform-origin: 398.446px 424.014px;" id="elnxhww81kp1" class="animable"></path><path d="M398.33,428.62a26.57,26.57,0,0,0,5.71-5.08c.57-.68,3.29-4,2.39-5-.58-.69-2.11.22-2.63.5-2.21,1.2-3.81,3.35-5.49,5.16a103.17,103.17,0,0,1-11.1,10.22c-.28.15-.57.29-.85.45s-.47.25-.7.38l-.24.13-.19.11a.24.24,0,0,0,.08.3l.55-.29-.4.3h0l.48-.22.11-.05c.23-.16.45-.33.67-.5A112.3,112.3,0,0,0,398.33,428.62Zm-10.17,5.26q3.46-2.75,6.64-5.81c1.71-1.65,3.34-3.36,4.94-5.12a24.57,24.57,0,0,1,2.85-2.83c.8-.63,4-2.72,3.2.23-.57,2.14-3.31,4.53-4.9,5.88a37.68,37.68,0,0,1-5.73,4C392.88,431.51,390.51,432.68,388.16,433.88Z" style="fill: rgb(255, 255, 255); transform-origin: 395.909px 427.044px;" id="el9fq9zidnim" class="animable"></path><path d="M375.56,446.7h0l-.14-.15c-2.73-4.23-7-9.39-6.76-14.72.19-3.94,2.36-9.23,6.27-10.85,4.41-1.81,3.55,6.53,3.43,8.66a153.08,153.08,0,0,1-2.53,17s0,.07,0,.11h0C375.75,446.84,375.65,446.78,375.56,446.7Z" style="fill: rgb(55, 71, 79); transform-origin: 373.578px 433.76px;" id="elwtl2cufm7jm" class="animable"></path><path d="M375.78,446.76c0-.34,0-.68-.06-1-.25-3.89-.32-7.81-.2-11.7,0-1,.81-8.52-1.15-8.16-1.18.22-1.89,3-2.15,3.95a15.34,15.34,0,0,0-.53,5.09c.26,3.93,2.26,7.5,3.66,11.16a4.5,4.5,0,0,1,.2.51.45.45,0,0,0,0,.12h0C375.65,446.78,375.74,446.84,375.78,446.76ZM372.3,437a15.57,15.57,0,0,1-.15-5.23c.15-1.16.86-5.33,2.32-5.4.78-.05.7.44.85,1.32a9.88,9.88,0,0,1,.12,1.22c.05,1,0,2-.07,3-.1,1.77-.15,3.53-.15,5.3,0,2.88.08,5.77.28,8.65C374.49,442.9,372.92,440.1,372.3,437Z" style="fill: rgb(255, 255, 255); transform-origin: 373.719px 436.343px;" id="el8ezut7vob66" class="animable"></path><path d="M389.32,448.11a29.73,29.73,0,0,1-17.23,1.79.16.16,0,0,1-.1,0,.21.21,0,0,1-.08-.26.22.22,0,0,1,.25-.15l.36.06c6-3.31,12.08-6.54,18.05-10,1.41-.8,10.48-5.78,11-2.24.3,2.19-3,4.75-4.48,6A30.29,30.29,0,0,1,389.32,448.11Z" style="fill: rgb(55, 71, 79); transform-origin: 386.741px 443.25px;" id="el1io3vq5vu2m" class="animable"></path><path d="M395.69,441.28c.36-.47.67-1.06,0-1.34-1.34-.55-5.54,1.87-6.75,2.49-5,2.53-10,4.57-15.18,6.64l-1.31.53h-.51a.23.23,0,0,0,.08.26l.13,0h.7a35.19,35.19,0,0,0,10.77-1.62,33.34,33.34,0,0,0,6.34-2.76C391.78,444.39,394.38,443,395.69,441.28Zm-22.58,8.3h-.34l.55-.18a99.28,99.28,0,0,0,12-4.83c2-1,3.86-2,5.85-2.93.84-.38,3.2-1.53,4-1.16s-.05.94-.47,1.34-.93.73-1.24,1A34.55,34.55,0,0,1,373.11,449.58Z" style="fill: rgb(255, 255, 255); transform-origin: 384.006px 444.86px;" id="el7icr6rpiz5y" class="animable"></path><path d="M360.62,459.18l-.59-.82,2.12-1.59q4.23-3.27,8.41-6.64c1.58-1.29,3.13-2.59,4.63-3.93l.16-.13.37-.34.39-.36a43.25,43.25,0,0,0,8.63-10.46c.75-1.33,1.44-2.69,2.11-4.07l.18-.4a.28.28,0,0,0,.05-.11c.07-.13.13-.27.2-.41l.14-.31c2-4.28,3.58-8.72,5.3-13.06.49-1.25,1-2.49,1.5-3.73a.73.73,0,0,1,.09-.22,2.33,2.33,0,0,1,.11-.28c2.2-5.49,4.48-11,6.54-16.5.07-.21.37-.06.3.14-1.34,3.7-2.6,7.44-3.88,11.18-.17.49-.35,1-.51,1.49l-1,2.94c-.69,2-1.38,3.91-2.12,5.86A143,143,0,0,1,387,433.68c-.2.38-.41.76-.63,1.15s-.26.48-.4.71-.31.55-.47.82a46.46,46.46,0,0,1-10.87,12l-.89.72-.41.34-.21.17-.29.23h0l-.22.16c-.25.21-.51.4-.77.61q-4.21,3.3-8.5,6.5Z" style="fill: rgb(55, 71, 79); transform-origin: 380.65px 427.449px;" id="elxx1w7ihhnyc" class="animable"></path><path d="M395.58,397.08c1.4-4.4,5.53-11.72,11.12-10.74a4.31,4.31,0,0,1,3.7,4.41c0,2.65-1.82,5.14-3.38,7.12-4.17,5.28-8.8,10.13-12.6,15.72a5.16,5.16,0,0,1-.4.6c-.08.12-.25,0-.17-.13s.24-.37.37-.55C394.24,408.1,393.92,402.28,395.58,397.08Z" style="fill: rgb(55, 71, 79); transform-origin: 402.116px 400.245px;" id="eljkphcq45an" class="animable"></path><path d="M394.43,413.63a.61.61,0,0,0,.05-.12,45,45,0,0,1,2.39-4.88,90,90,0,0,1,6.29-9.4c.87-1.17,5.23-6.74,1.61-7.13-1.52-.17-3.07,1.13-4.11,2.08a17.1,17.1,0,0,0-3.94,5.43c-1.91,4.07-2.35,8.55-2.41,13,0,.2,0,.4,0,.6l-.08.19a.43.43,0,0,0-.05.12.11.11,0,0,0,0,.08.15.15,0,0,0,.2.11A.1.1,0,0,0,394.43,413.63Zm0-1.31a36.38,36.38,0,0,1,1.78-10.82,19.05,19.05,0,0,1,2.7-5.05,15.45,15.45,0,0,1,1.71-1.9,11.49,11.49,0,0,1,1.48-1.21c1.16-.78,2.74-1.2,3.34-.61s.46,1.34-.1,2.58a11.53,11.53,0,0,1-.64,1.2c-.59,1-1.27,1.9-1.95,2.81-1.12,1.51-2.24,3-3.3,4.59-.72,1-1.41,2.13-2.06,3.23a47.56,47.56,0,0,0-3,5.86C394.39,412.78,394.4,412.55,394.42,412.32Z" style="fill: rgb(255, 255, 255); transform-origin: 400.179px 402.902px;" id="eloi19v14dgkq" class="animable"></path><path d="M101.54,424.06c2.72,2.5,5.27,5.19,7.78,7.89,1.42,1.53,2.83,3.09,4.26,4.62,1.58,1.69,3.06,3.58,5.28,4.41h0a1.38,1.38,0,0,1,.27.16.09.09,0,0,1,0,.05.27.27,0,0,1-.34.33l-.15-.05h-.06a9.25,9.25,0,0,1-2-.46,48,48,0,0,1-5.37-1.6A45.87,45.87,0,0,1,101,434.27a39.06,39.06,0,0,1-7.67-6.79c-1.78-2.08-4.47-5.15-5-8-.45-2.53,2.82-2,4.34-1.59C96.12,419,99,421.69,101.54,424.06Z" style="fill: rgb(55, 71, 79); transform-origin: 103.714px 429.538px;" id="elaxeqxu4wwgd" class="animable"></path><path d="M93.3,422.21c-.77,1.08,2.17,4.39,3.41,5.86a37.44,37.44,0,0,0,6.66,6.16,48.15,48.15,0,0,0,14.61,7l.63.19h.06l.14.05a.28.28,0,0,0,.35-.34c-.42-.19-.82-.39-1.22-.62s-.71-.39-1-.6c-3.78-2.25-7.07-5.38-10.29-8.36C102.82,428.09,94.34,420.77,93.3,422.21Zm24.14,18.44c.53.29,1.06.56,1.6.8l-1.27-.41a53.73,53.73,0,0,1-12.94-6.15,38.39,38.39,0,0,1-6.21-5.17,35.33,35.33,0,0,1-2.83-3.29c-.36-.49-2.73-3.38-2.11-3.95.45-.4,3.17,1.38,3.23,1.42.55.35,1.08.73,1.61,1.12,1.08.79,2.13,1.65,3.15,2.52,2.21,1.9,4.33,3.92,6.48,5.89A50.66,50.66,0,0,0,117.44,440.65Z" style="fill: rgb(255, 255, 255); transform-origin: 106.171px 431.753px;" id="el10h3htoe2gyi" class="animable"></path><path d="M122,412.82c2.47,4.79,3,10.28,3.12,15.58,0,2.84,0,5.68-.08,8.52a37.4,37.4,0,0,0,.26,7.6c0,.11,0,.22.07.33a9.6,9.6,0,0,0,.68,2,.14.14,0,0,1,0,.14,1.27,1.27,0,0,1,.13.19s0,.1-.07.06-.12-.11-.18-.16h0a.15.15,0,0,1-.15-.09l0-.08-.17-.17c-4.15-3.82-6.48-10.29-8.06-15.49s-2.3-10.74-.93-16c.35-1.34.94-4.51,2.55-5S121.5,411.81,122,412.82Z" style="fill: rgb(55, 71, 79); transform-origin: 121.038px 428.712px;" id="el26vk5eosvp6" class="animable"></path><path d="M119.84,415.92c-1.63.27-1.29,4.74-1.24,5.83a58,58,0,0,0,1.49,9.8,51.23,51.23,0,0,0,5.4,15h0a1.8,1.8,0,0,1,0,.19l.18.17,0,.08a.14.14,0,0,0,.16.09c0-.09-.05-.17-.06-.25-.18-.65-.34-1.32-.48-2,0-.11,0-.22-.07-.33a111.92,111.92,0,0,1-1.45-14.09,52.44,52.44,0,0,0-1.48-9.75C122.18,419.87,121.2,415.69,119.84,415.92Zm1.46,2.37c2.22,5.15,2.16,11.27,2.53,16.77a58.37,58.37,0,0,0,1.54,11,54.29,54.29,0,0,1-4.72-13.69,72.91,72.91,0,0,1-1.48-8.15,30.36,30.36,0,0,1-.24-4.48,11.55,11.55,0,0,1,.34-2.66C119.82,415.51,120.91,417.4,121.3,418.29Z" style="fill: rgb(255, 255, 255); transform-origin: 122.183px 431.497px;" id="elaciqz3uqclr" class="animable"></path><path d="M134.89,454.14a.28.28,0,0,1,0,.28H135a.1.1,0,0,1,.09.08.09.09,0,0,1-.07.1c-6.4,1-13.5,1.3-19.79-.42a25.19,25.19,0,0,1-7.5-3.36c-1.56-1.06-4.7-3.18-4.88-5.29-.36-4.24,10.88.16,12.57.83,3.09,1.22,6.06,2.69,9.12,4,3.35,1.39,6.79,2.54,10.23,3.69A.24.24,0,0,1,134.89,454.14Z" style="fill: rgb(55, 71, 79); transform-origin: 118.966px 449.559px;" id="elpp4d9if7x1i" class="animable"></path><path d="M134.89,454.14l-1-.11a54.93,54.93,0,0,1-16.19-4.39,49.14,49.14,0,0,0-7.91-3c-.68-.16-3.18-1-2.78.65.21.83,4.32,3.21,5.44,3.74a34.7,34.7,0,0,0,8.07,2.53,56.86,56.86,0,0,0,14.15,1l.41,0a.08.08,0,0,0-.08-.09h-.11A.29.29,0,0,0,134.89,454.14Zm-12-.5a39.55,39.55,0,0,1-8.16-2,29.79,29.79,0,0,1-3.07-1.35A18.8,18.8,0,0,1,109.4,449c-1.73-1.26-2.08-1.72-1.94-2.06s.46-.32,1.87-.09a15.07,15.07,0,0,1,2.64.77c1.22.47,2.42,1,3.62,1.49,2.39,1,4.78,2.1,7.24,2.95a42.13,42.13,0,0,0,10.94,2.28A64.15,64.15,0,0,1,122.88,453.64Z" style="fill: rgb(255, 255, 255); transform-origin: 121.024px 450.464px;" id="eledmnjwq2sju" class="animable"></path><path d="M134.23,435.77a16.06,16.06,0,0,1,3.3,6c1.46,4.36,2,9,3.12,13.39.17.67.36,1.33.56,2,0,.07.46.8.41.76l-.57-.59h0c-1.73-1.82-6.88-7.4-8.85-11.18a32.75,32.75,0,0,1-3-7.41c-.28-1.23-.8-4,.42-5S133.4,434.9,134.23,435.77Z" style="fill: rgb(55, 71, 79); transform-origin: 135.235px 445.701px;" id="elp8ry9f4d2ll" class="animable"></path><path d="M131.61,436.85c-1.72.71,1.82,8.24,2.27,9.22a45.87,45.87,0,0,0,6.31,10.21c.27.36.56.7.86,1.05s.55.58.57.59-.38-.69-.41-.76-.07-.23-.1-.34c-.17-.54-.32-1.09-.46-1.63-1.12-3-2.19-6-3.38-8.92a43,43,0,0,0-3-6.18C134,439.65,132.35,436.53,131.61,436.85Zm1.4,1.55c3.83,5.5,5.21,12.11,7.74,18.21,0,.1.08.2.13.3-.11-.14-.22-.27-.32-.41a51.61,51.61,0,0,1-5.34-8.37,50.77,50.77,0,0,1-2.42-5.56,24.8,24.8,0,0,1-1.06-3.15c-.11-.47-.34-1.77,0-1.94S132.75,438,133,438.4Z" style="fill: rgb(255, 255, 255); transform-origin: 136.381px 447.374px;" id="elxn9bs05f2ed" class="animable"></path><path d="M101.05,392.61c6,10.06,3,23,8.29,33.33l0,.06c.16.31.34.62.52.94a.22.22,0,0,1-.17.32.17.17,0,0,1-.15-.09,1.71,1.71,0,0,1-.13-.23c-4.78-4.43-8.65-10.47-11.49-16.3-2.47-5.07-4.1-10.76-3.26-16.43.21-1.4.52-4.19,2.21-4.71S100.31,391.37,101.05,392.61Z" style="fill: rgb(55, 71, 79); transform-origin: 102.161px 408.344px;" id="elydg9jt3wthd" class="animable"></path><path d="M99,396.31c-.7.22-.79,1.27-.87,1.84a18.19,18.19,0,0,0-.1,4.3,30,30,0,0,0,2.19,8.53,61.14,61.14,0,0,0,7.13,13.3,34,34,0,0,0,2.13,2.66l.27.32a.23.23,0,0,0,.17-.33c-.18-.29-.34-.59-.5-.9a.56.56,0,0,1,0-.08,36.53,36.53,0,0,1-3-6.29,86.86,86.86,0,0,1-2.68-10.53C103.3,407.74,101.4,395.51,99,396.31Zm1.59,2.05c1.23,2.63,1.63,5.62,2.25,8.44s1.24,5.69,1.92,8.52a40.66,40.66,0,0,0,2.17,6.59,31.47,31.47,0,0,0,2.72,5.09,43.12,43.12,0,0,1-3.31-4.62.09.09,0,0,1,0-.06,78.88,78.88,0,0,1-4.72-8.95l-.06-.12a37.29,37.29,0,0,1-2.87-8.41,21.16,21.16,0,0,1-.4-4.83c.08-1.83.34-3.3,1-3.33C99.62,396.67,100.21,397.58,100.56,398.36Z" style="fill: rgb(255, 255, 255); transform-origin: 103.946px 411.766px;" id="elmyuvzhsxsbm" class="animable"></path><path d="M101.8,413.24c1.64,2.91,3.36,5.79,5.1,8.67l2.44,4a.56.56,0,0,0,0,.08l.88,1.46c2.66,4.39,5.29,9,8.64,12.93a43.76,43.76,0,0,0,5.92,5.61l.66.53h0l.37.28a1.49,1.49,0,0,0,.2.15c1.87,1.45,3.82,2.8,5.71,4.1,2.65,1.82,5.4,3.45,8.16,5.05a2,2,0,0,0,.25.14l.37.22.19.11.36.21c.89.51,1.77,1,2.66,1.56l-.57.8a63.7,63.7,0,0,1-8.39-4.55l-.17-.1-.78-.5c-.33-.2-.64-.41-1-.62l-2.27-1.53a67.76,67.76,0,0,1-12.25-10.14l-.28-.33a.53.53,0,0,1-.12-.14,1.51,1.51,0,0,1-.21-.23l-.33-.39c-.19-.23-.37-.47-.55-.7l-.16-.21a102.19,102.19,0,0,1-7.48-12c-.42-.74-.84-1.48-1.25-2.22l-.68-1.24-1-1.9a.09.09,0,0,1,0-.06c-1.59-3-3.12-6-4.72-8.95C101.49,413.23,101.72,413.1,101.8,413.24Z" style="fill: rgb(55, 71, 79); transform-origin: 122.605px 436.159px;" id="elpnd4vumb32l" class="animable"></path></g><g id="freepik--Splash--inject-10" class="animable" style="transform-origin: 250.391px 377.297px;"><g id="elsg7iaeuzc8"><path d="M395.72,459.18H111.15s23.61-9.09,29.59-18.4a8.43,8.43,0,0,0,1.11-3.2h0c1-4.95,4.93-18.58,11.63-21.74s19.59-7.43,24.83-12.47c3.43-3.3,4.66-4.75,7.32-6.49a65,65,0,0,1,6-3.37c7.65-3.94,24.3-7.34,25.39-14.25.33-2.11-9-3.55-9.09-10.64s7.6-7.88,9.45-6.05,1,5.82-.16,7-2.06,4.2.19,5.22,8.06-5.07,13.88-4.66,3.49,6.32,5.49,9.15,16.46,3.64,20.86,5.23,9.06,10.48,23.61,10.81,31.43-5.57,33.51-8.23,1.22-5.19-.59-6.32c-2.45-1.54-5.17-8,1-9.19s7.69,5.45,6.28,8.11a13.79,13.79,0,0,0-1.58,8.07c.42,2,2,5.48,2.08,9.22s2.41,5.41,6.15,5.16,10.14-9.15,13.8-12.31,9.23-1.91,11.72-3.9.59-9.15,5.82-14,14.55-1.41,13.64,1.75-9.9,2.82-11.47,4.57-2.08,6.15-4.08,8.06-8,5.74-8.73,8,3.33,2.25,6.57.92,7.1-7.66,9.06-9.23a12.38,12.38,0,0,0,2.3-3.24c.6-1,1.2-2.13,1.83-3a4.12,4.12,0,0,1,2-1.74c2.33-.58,3.16,2.12,5.7.37s.29-6.81,3.24-10.55,12.72-12.18,15.21-10.23-1.74,4.82-4.82,6.65-4.74,3.2-4.9,6.36a12.57,12.57,0,0,0,.57,5.43,9.82,9.82,0,0,0,.68,1.44c1.16,2.07-5.56,3.81-7.56,7.78a7.3,7.3,0,0,0,.13,3.15h0a21.68,21.68,0,0,1-1.3,4.8c-2.5,5.41-17.09,22.95-15.51,36.17S387.57,459.18,395.72,459.18Z" style="fill: #8CCBBE; opacity: 0.4; transform-origin: 253.435px 408.251px;" class="animable" id="elqhtlcr5ci1"></path></g><g id="el1qxb9mrfrq7"><path d="M149,425.78c3.24-5.68,9-9.33,14.91-11.85,2.95-1.3,6.06-2.29,9-3.5a29.48,29.48,0,0,0,7.69-5.56c2.64-2.47,4.93-5.26,7.4-7.93,2.21-1.87,5.09-2.68,7.74-3.68,6.09-2.12,12.38-3.63,18.27-6.09a14.24,14.24,0,0,0,4-2.36c2.35-2.18,4.22-4.8,6.38-7.19,1.63-1.74,3.69-3.7,6.28-3.65a2.68,2.68,0,0,1,2,1.56c2.59,6.75,1.49,7.71,9.5,8.41,4.79.54,9.74.2,14.4,1.63a16.79,16.79,0,0,1,4.06,2.67c10.08,8.67,11.85,11.29,25.58,8.5,7.83-1.48,15.68-3.69,23.34-5.9,6.92-2.16,9.53-2.72,10.25,5.56a15,15,0,0,0,1.16,4.49,6,6,0,0,0,7.57,2.79c5.12-2.41,7.93-7.94,12.88-10.74,1.21-.56,3-.9,4,.33.73,1.08.56,2.46,1.21,3.44,4.91,5.64,11.41-2,14.66-6a57.8,57.8,0,0,1,4-4.62,5.9,5.9,0,0,0,2.35-2.49c1.19-2.81,2.33-4.46,5.75-3.61,1.43.41,3.08,1.34,3.95-.28,1.4-3.68.71-8.26,3.39-11.46a29.4,29.4,0,0,1,9-8,4.13,4.13,0,0,1,2.36-.5v.1a4.1,4.1,0,0,0-2.28.54,23.21,23.21,0,0,0-5.6,4.47c-2.16,2.33-4.48,4.75-4.93,8-.55,2.36-.46,4.85-1.38,7.16-.85,1.94-3.19,1.15-4.63.64-4.95-1.29-3.8,3.89-7,5.71-3.91,3.73-6.46,8.74-11.1,11.85-2.67,2.07-7.28,2.2-9.32-.91-.69-1.07-.6-2.38-1.16-3.35-3-2.35-9.05,6.14-11.53,8a16,16,0,0,1-4.11,2.81,7.06,7.06,0,0,1-8.89-3.31c-1.47-3-1.06-6.46-2.12-9.41-1.35-3.11-5.69-.66-8.13-.21-4.51,1.27-9.47,2.62-14,3.68-7.05,1.47-14.28,3.6-21.55,2.72-5.55-1.54-9.6-6-13.86-9.58a13,13,0,0,0-8.61-3.57c-3.2-.34-6.41-.41-9.63-.68-2.34-.33-5.11-.21-7-1.91-1.67-1.84-1.82-4.55-2.92-6.61-.75-1.64-2.43-1.46-3.81-.72-4.2,2.38-6.36,7.13-9.91,10.32-3.81,3.18-8.81,4.19-13.35,5.8-5.28,1.8-10.85,3-15.74,5.69a6.81,6.81,0,0,0-1.7,1.53c-4.3,4.77-8.62,9.9-14.59,12.64-9,3.24-18.77,6.42-24.16,14.75Z" style="fill: #8CCBBE; opacity: 0.7; transform-origin: 270.54px 392.817px;" class="animable" id="eldsn0x8eeex"></path></g><path d="M145.19,430.44c1.05-4.25,3.53-7.83,5.94-11.41,1.19-1.87,3.37-2.82,5.31-3.77a37.86,37.86,0,0,1,6.07-2.19l0,.09c-1.85,1.12-3.75,2.1-5.65,3.06L154,417.59a10.54,10.54,0,0,0-4.37,4.33c-1,1.9-1.65,3.93-2.71,5.79a24.49,24.49,0,0,1-1.65,2.78l-.09-.05Z" style="fill: rgb(255, 255, 255); transform-origin: 153.845px 421.78px;" id="el58t4kcmd8ta" class="animable"></path><path d="M213.79,375.55a8.19,8.19,0,0,1-4.09-5.05c-.51-1.39-1-3-.24-4.45a5,5,0,0,1,5.74-2.93v.1c-3.29.56-6.63,3.7-5.19,7.16,1.12,1.84,2.66,3.23,3.85,5.1l-.06.07Z" style="fill: rgb(255, 255, 255); transform-origin: 212.134px 369.27px;" id="el1e1vzld7k3z" class="animable"></path><path d="M220.78,374.89a8.8,8.8,0,0,1,4.22-2.21c1.49-.65,2.79-1.69,4.46-1.93a4.52,4.52,0,0,1,3.25.56l0,.09a12.8,12.8,0,0,0-3,.4,24.44,24.44,0,0,0-4.52,1.18,9.1,9.1,0,0,1-4.32,2l0-.09Z" style="fill: rgb(255, 255, 255); transform-origin: 226.745px 372.819px;" id="el2xmjfv9tfuh" class="animable"></path><path d="M262.78,389c3,1.52,5.64,3.48,8.5,5.18,5.05,2.4,10.84,1.3,16.28,1.71v.1c-5.47,1.36-11.4,1.2-16.43-1.51a22.75,22.75,0,0,1-8.42-5.4l.06-.08Z" style="fill: rgb(255, 255, 255); transform-origin: 275.135px 392.913px;" id="elopr5pvzswx" class="animable"></path><path d="M315.26,372.36a5,5,0,0,0-2.21,5.19c.49,1.38,2,1.93,3,2.91a4.51,4.51,0,0,1,1.4,1.92,4.8,4.8,0,0,1-1.3,4.3l-.08-.05a6.9,6.9,0,0,0,.37-3.93c-.44-1.2-1.71-2.1-2.49-3.17-1.42-1.6-2.58-4.44-.76-6.24a3.33,3.33,0,0,1,2-1l0,.09Z" style="fill: rgb(255, 255, 255); transform-origin: 314.898px 379.485px;" id="elzwdbchuxs9h" class="animable"></path><path d="M342.19,390.82c2.84-2.88,7.22-2.92,10.9-3.81,2.5-.53,2.47-3.56,3-5.61.55-3.09,1.28-6.44,3.76-8.65a10.09,10.09,0,0,1,9-2.05c-7.54.09-10.56,4-12.27,10.82-.76,2.08-.85,5.17-3.32,6-3.6,1.4-7.8,1.43-11.08,3.29Z" style="fill: rgb(255, 255, 255); transform-origin: 355.515px 380.602px;" id="elarxc9iz5gbl" class="animable"></path><path d="M378.82,370.85c.93-3.32,3.9-5.43,6.14-7.85,2.34-2.17,5.24-4.95,8.67-4.64v.05c-1.68,0-3.11,1-4.49,1.84a32.06,32.06,0,0,0-10.32,10.6Z" style="fill: rgb(255, 255, 255); transform-origin: 386.225px 364.593px;" id="elvk6vv9a9k2" class="animable"></path><g id="el065mqghppukt"><path d="M331,368.6a1.1,1.1,0,0,0-.54-1.27,1.17,1.17,0,0,0-.31-.12,1.27,1.27,0,0,0-.34,0,1.47,1.47,0,0,0-.46.11.88.88,0,0,0-.25.18,1,1,0,0,0-.26.4.64.64,0,0,0-.05.33,1,1,0,0,0,.3.72,1.42,1.42,0,0,0,.54.36,1.13,1.13,0,0,0,.63,0,.89.89,0,0,0,.61-.54h0A1.67,1.67,0,0,0,331,368.6Z" style="fill: #8CCBBE; opacity: 0.4; transform-origin: 329.914px 368.277px;" class="animable" id="el1zxu4an4b1k"></path></g><g id="eldrcajzeogcd"><path d="M297.78,359.2a3.31,3.31,0,0,0,.64-2,2.67,2.67,0,0,0-.15-1,3.77,3.77,0,0,0-.43-.85,0,0,0,0,0,0,0,3,3,0,0,0-1.35-2.16,2.45,2.45,0,0,0-2.39-.05,2.83,2.83,0,0,0-1.37,2,3.82,3.82,0,0,0,.5,2.7,6.78,6.78,0,0,0,.79,1.08,4.85,4.85,0,0,0,.89.92,2,2,0,0,0,1.62.31A2.55,2.55,0,0,0,297.78,359.2Z" style="fill: #8CCBBE; opacity: 0.4; transform-origin: 295.544px 356.529px;" class="animable" id="eloa5v50cj90d"></path></g><g id="el6qrcpl2x9ql"><path d="M345.12,374.78a.5.5,0,0,0,.05-.21.41.41,0,0,0,0-.21v0s0-.09,0-.13,0-.09,0-.14a1.1,1.1,0,0,0-.2-.35,1.14,1.14,0,0,0-.22-.22l-.05,0s0,0,0,0a1,1,0,0,0-.16-.1,1.32,1.32,0,0,0-.62-.12.09.09,0,0,0-.08.08s0,.06,0,.09a1.69,1.69,0,0,0-.24.08,1.62,1.62,0,0,0-.62.75,1.52,1.52,0,0,0-.08.79.88.88,0,0,0,.61.75,1.34,1.34,0,0,0,.84,0,1.81,1.81,0,0,0,.37-.18,1.94,1.94,0,0,0,.36-.34A1.73,1.73,0,0,0,345.12,374.78Z" style="fill: #8CCBBE; opacity: 0.4; transform-origin: 344.032px 374.603px;" class="animable" id="elegkuaqot23g"></path></g><g id="elzcyuob7hy5e"><path d="M307.65,365.6a1.7,1.7,0,0,0,1.3-2,3.17,3.17,0,0,0-1.25-1.76c-.85-.65-1.77-1.21-2.67-1.79a6.11,6.11,0,0,0-2.48-1.27,1.66,1.66,0,0,0-2,1.7,3.22,3.22,0,0,0,1.5,2.39,4.24,4.24,0,0,0,2.21.75l.92.92A3.14,3.14,0,0,0,307.65,365.6Z" style="fill: #8CCBBE; opacity: 0.4; transform-origin: 304.766px 362.173px;" class="animable" id="el4mb1vn5lhn"></path></g><g id="elrjksfo2c00i"><path d="M338.87,375.88a3.19,3.19,0,0,0-.89-3.51,4.19,4.19,0,0,0-4.16-.72,5.8,5.8,0,0,0-3.92,4.94,4.61,4.61,0,0,0,.91,3.24,3.14,3.14,0,0,0,3.26,1.26,4.2,4.2,0,0,0,2.29-2,13.37,13.37,0,0,1,.78-1.18c.28-.37.8-.76,1.15-1.18a2.86,2.86,0,0,0,.27-.52A.77.77,0,0,0,338.87,375.88Z" style="fill: #8CCBBE; opacity: 0.4; transform-origin: 334.473px 376.277px;" class="animable" id="el4xl52a13d42"></path></g><g id="el3gafpbbet7p"><path d="M371,367.49a3.19,3.19,0,0,0,3.6-.27,4.23,4.23,0,0,0,1.42-4,5.82,5.82,0,0,0-4.2-4.71,4.63,4.63,0,0,0-3.35.35,3.15,3.15,0,0,0-1.8,3,4.28,4.28,0,0,0,1.57,2.6,11.58,11.58,0,0,1,1,1c.32.34.62.92,1,1.33a2.71,2.71,0,0,0,.46.36A.72.72,0,0,0,371,367.49Z" style="fill: #8CCBBE; opacity: 0.4; transform-origin: 371.379px 363.133px;" class="animable" id="elk1fyv4yk4xt"></path></g><g id="el24jl93g3aqz"><path d="M327.64,377.51a1.14,1.14,0,0,0-.07-.75.54.54,0,0,0-.21-.26,2.74,2.74,0,0,0-.15-.58,1.67,1.67,0,0,0-.23-.44.7.7,0,0,0-.49-.29,1.76,1.76,0,0,0-1.34.27,2.17,2.17,0,0,0-.81,1,1.77,1.77,0,0,0,.06,1.28,1.72,1.72,0,0,0,1.7.95,1.78,1.78,0,0,0,1-.39A1.3,1.3,0,0,0,327.64,377.51Z" style="fill: #8CCBBE; opacity: 0.4; transform-origin: 325.961px 376.926px;" class="animable" id="el04lg1wzqdtda"></path></g><g id="el069xzpgbh3gl"><path d="M232.6,346.86a3.07,3.07,0,0,0-1.68,1,.27.27,0,0,1-.07.08,2.86,2.86,0,0,0-1,1,2.44,2.44,0,0,0-.24,2c.15.41.47.84.95.82s.84,0,1.25-.07a4.35,4.35,0,0,0,2.36-.86,2.81,2.81,0,0,0,1-1.83,2,2,0,0,0-.77-1.83A2.34,2.34,0,0,0,232.6,346.86Z" style="fill: #8CCBBE; opacity: 0.4; transform-origin: 232.341px 349.279px;" class="animable" id="el74yjr3fyysj"></path></g><g id="elyxs7qawzr1"><path d="M234.58,356.79a6.55,6.55,0,0,0-1.77.68,24.59,24.59,0,0,0-3.1,2.19c-.26.09-.52.17-.77.27a30,30,0,0,0-2.84,1.23,3.94,3.94,0,0,0-1.84,1.65,2.31,2.31,0,0,0,.89,3.25,3.46,3.46,0,0,0,3.44-.72c1.18-1,1.75-2.67,3.26-3.31s3.34-.52,4.55-1.91a2.92,2.92,0,0,0,.76-1.79,1.7,1.7,0,0,0-.69-1.5A3.37,3.37,0,0,0,234.58,356.79Z" style="fill: #8CCBBE; opacity: 0.4; transform-origin: 230.542px 361.458px;" class="animable" id="elggs3c81cg5q"></path></g><path d="M370.36,359.41c-1.32,1.35-3.74,1-1.77,3.42a16.43,16.43,0,0,1,1,1.42l-.05.06c-1.19-.32-2.54-1.52-2.11-2.87a3,3,0,0,1,2.87-2.1l0,.07Z" style="fill: rgb(255, 255, 255); transform-origin: 368.854px 361.825px;" id="elafmfzzlrcdg" class="animable"></path><path d="M295.55,353.82a3.2,3.2,0,0,1-1,.95c-.41.14-.83.46-.72.94.09.73.94,1.77.85,2.42a2,2,0,0,1-.9-3.16,1.67,1.67,0,0,1,1.7-1.22l0,.07Z" style="fill: rgb(255, 255, 255); transform-origin: 294.438px 355.939px;" id="el2tx33vxlefy" class="animable"></path><path d="M302.2,359.39c-.7.93-.73,2.89.64,3.07l1,.15c1.11,0,1.95,1.12,2.45,2-.39.07-1.45-.8-1.78-1a12,12,0,0,1-1.82-.76c-.9-.6-2-1.62-1.42-2.81a1.31,1.31,0,0,1,.9-.71l0,.07Z" style="fill: rgb(255, 255, 255); transform-origin: 303.699px 361.972px;" id="el4vqckicv6zb" class="animable"></path><path d="M335.84,371.81a14.42,14.42,0,0,1-2.84,1.52c-1.36,1.17-1.76,2.91-2.05,4.64h-.08c-1-2,.36-3.79,2-4.84a3.59,3.59,0,0,1,2.95-1.41l0,.08Z" style="fill: rgb(255, 255, 255); transform-origin: 333.185px 374.844px;" id="eladaxyv13u9s" class="animable"></path><path d="M225.21,364.49c-.41-2.6,2.73-3.45,4.64-4.12s3.43-3.53,5.66-2.68c-1.72.31-2.25,1.49-4,2.51-.89.72-2.16.43-3.16,1-1.22.84-2.66,1.83-3.1,3.31Z" style="fill: rgb(255, 255, 255); transform-origin: 230.342px 361.022px;" id="elhv8ogjeb625" class="animable"></path><path d="M230.33,350.63a1.38,1.38,0,0,1,.58-1.78c.39-.54.58-1.24,1.28-1.52.41-.25,1.43-.05,1.36.28a3.47,3.47,0,0,0-1,.44c-.41.26-1.13.46-1.42.94a3.35,3.35,0,0,1-.7,1.64Z" style="fill: rgb(255, 255, 255); transform-origin: 231.879px 348.924px;" id="elkcqt7bstfgh" class="animable"></path><g id="elwc039ho7sln"><path d="M395.72,459.18H111.15s23.61-9.09,29.59-18.41-9.64-48.71-12-56-11.64-13.8-15.13-23.28-3.49-18.29-8-25.93-14-22.45-7.31-25.28,5.15,8.15,6.48,12,8.48,7.49,11.47,12.64,5.82,15.8,13.64,21.12,10.8,3.82,10.8,1.33-7.31-4.49-7.81-9.31,8-4,10.64,1.16.17,11,2.74,13.14,4.49.41,8.82,1.57,8,6.07,10.39,6.07.75-5.57,4.41-5.23,1.08,6,1.33,9.31,9.06,12.55,11.3,17.12,5.66,11.14,10.81,14.22,12.3,4.24,19,7.23,11.14,8.9,18.87,10.06,10.64-3.07,10.22-5.49-2.32-5.32,0-6.81,5,1.58,3.58,6.07-5.57,11.64.5,13.38,13.47-11.64,21.53-12.55,11.64,9.89,14.72,7.73.91-19.62,6.81-19.29,2.91,8,.34,11.47-6.57,10.9-3.5,13,3.33-7.73,6.32-7,.25,5-1.33,7.23.42,6.4,2,8,5.82-.83,11-.74,6.32,1.74,9.07,1.16,5.4-7.65,10.39-9.31,9.47,0,13-2.74,5.57-13.06,9.81-17.13,16.29-10.14,18.87-14.38,0-13.3,4.24-15.72,5.9,2.58,4.74,4.91-5.15,8.4-2.41,8.48,4.4-8.31,7.9-11.89,6.48-5.74,10.89-6.15,4.82,4.82.7,5.82-6.56-.5-9.39,2.16-2.24,6.95-3.82,10.39c-2.5,5.41-17.09,22.95-15.51,36.17S387.57,459.18,395.72,459.18Z" style="fill: #8CCBBE; opacity: 0.4; transform-origin: 245.853px 384.5px;" class="animable" id="el7ytfjreqx9i"></path></g><g id="el5liw1ehhf89"><path d="M98.35,310.25c6.75-2.67,5.17,8,6.46,11.76,1.45,3.57,5.08,5.58,7.7,8.25a20.57,20.57,0,0,1,5.3,7.38c2.52,5.49,4.86,11.28,9.16,15.64,2.35,2.38,9.28,7.44,12.76,5.74a1.86,1.86,0,0,0,.38-2.74c-2.45-2.58-7-4.25-7.37-8.42,0-5,7-3.36,9.35-.93,2.37,2.14,3,5.47,3.07,8.5.09,2.75-.45,6.69,2.91,7.6,1.39.41,3,.07,4.49.2a11.26,11.26,0,0,1,4.48,1.15,23.28,23.28,0,0,1,3.84,2.55,20.87,20.87,0,0,0,3.7,2.55c.66.3,1.41.34,1.76-.24.76-1.27.53-3.09,1.73-4.22a2.59,2.59,0,0,1,3.46.19c.78,1,.65,2.35.54,3.49-.16,1.53-.51,3-.57,4.51s.72,2.78,1.5,4.06c1.65,2.54,3.56,4.92,5.41,7.34a41.11,41.11,0,0,1,5,7.66,48.86,48.86,0,0,0,4.68,7.77c5.5,7.87,15.78,8.38,23.91,12.06,7,2.89,12.18,9.61,20,10.31,3.57.55,9.27-.72,9.14-5.19-.31-1.91-1.52-3.68-1-5.7a2.64,2.64,0,0,1,4.24-1.21c4.28,4.9-2.67,11-1.56,16.48a3.94,3.94,0,0,0,3.94,2.8,7.91,7.91,0,0,0,4-1.59,90.59,90.59,0,0,0,6.94-5.87c16.24-15.31,21.24,8.31,24.61,1.49,1.66-5.06.91-10.67,3-15.67.55-1.49,2.1-3,3.81-2.53a3.93,3.93,0,0,1,2.25,1c1.76,1.88.92,4.76.14,6.85-1.73,4.2-5.21,7.57-6.41,12-.42,1.58-.89,3.87.83,4.77,2.12.77,2.78-5.88,4.66-6.91a1.9,1.9,0,0,1,2.86,1.68c-.13,2-1.36,3.67-2.4,5.3-1.73,2.09-.47,5.07.84,7.09.41.55.81,1.2,1.5,1.35,2.19.3,4.44-.68,6.64-.92a20.23,20.23,0,0,1,9.15.61,9,9,0,0,0,2.18.41,3.34,3.34,0,0,0,2-.5c2.31-1.86,3.79-4.75,6.07-6.74,3.43-3.51,8.69-2.73,13.09-3.42,3.15-.43,5.1-3,6.3-5.71,2-4.1,3.31-8.59,6.28-12.19,2.11-2.27,4.76-3.84,7.29-5.56s5.12-3.31,7.57-5.1c1.76-1.37,3.7-2.71,4.78-4.7,1.58-3.48.88-7.44,1.64-11.18.79-6.23,8.87-6.75,7.67.41-1,2.74-3.48,5.24-3.53,8.25a.66.66,0,0,0,.68.54c1.13,0,1.81-1.15,2.36-2,1.51-2.63,2.52-5.55,4.21-8.11a22.61,22.61,0,0,1,6.76-6.12,13.2,13.2,0,0,1,4.3-1.55c1.47-.28,3.28-.38,4.3.93a2.94,2.94,0,0,1-.75,4.11c-2.64,1.8-6,.63-8.91,1.56-4.91,1.8-4.13,7.72-5.91,11.68,1.27-2.79,1.09-6,2.53-8.75a6.59,6.59,0,0,1,3.36-3A15.7,15.7,0,0,1,388,381c2.14-.12,5-.5,5.52-3,.41-2.82-2.36-3.54-4.64-2.95-4.47.82-8.26,4.08-10.9,7.63-2.19,3.09-2.89,7.22-5.62,9.94-.61.52-1.92.55-2.11-.42-.05-3.05,2.46-5.68,3.49-8.4,1.07-6.58-6.23-6-7-.24-1.17,7.58.88,11.15-6.55,16.14-4.81,3.68-10.47,6.35-14.77,10.62-2.89,3.5-4.21,8.05-6.2,12.1-3.39,8.14-8.91,5.33-15.65,7.08-4.67,1.25-6.44,6.17-9.94,9-1.46,1-3.2.57-4.63.17a19.67,19.67,0,0,0-8.92-.58c-1.5.22-3,.6-4.48.87a4.66,4.66,0,0,1-3-.19c-2-1.78-3.69-5.35-2.71-8.06.78-1.5,4.84-6.45,1.83-7.33-1.79-.31-2.57,3.72-3.31,5.06-.69,1.74-2.14,3.28-3.76,1.25-1-1.41-.58-3.17-.2-4.68,1.47-5.88,7.38-10.08,7.22-16.38a2.77,2.77,0,0,0-2.69-2.62c-4.24-.65-4.31,8.11-4.8,11s-.66,11.43-5.36,7.52c-2.74-2.48-5.07-5.82-8.8-6.77-7.61-1.66-13.09,7.08-18.85,10.78a8.64,8.64,0,0,1-4.39,1.72,4.66,4.66,0,0,1-4.65-3.37c-.72-4.29,2.28-8.14,2.92-12.2a4.69,4.69,0,0,0-1.12-3.93,2,2,0,0,0-3.14.9c-.43,1.78.75,3.61,1,5.39a4.43,4.43,0,0,1-1.13,3.42c-3.36,3.61-9,3-13.24,1.43-5.78-2.18-10-7-15.68-9.31a90.91,90.91,0,0,0-8.58-3c-5.81-1.74-12-4-15.53-9.23-3.74-4.91-5.6-10.75-9.68-15.45-1.84-2.43-3.75-4.81-5.42-7.38-.77-1.3-1.73-2.78-1.57-4.36-.15-2.14,2-7.37-.68-8.16a2.06,2.06,0,0,0-1.93.35c-1.51,1.4-.65,6-4,4.54-4-2.15-7-6.21-11.86-6.24-1.53-.13-3.08.22-4.6-.23-3.59-1-3.15-5.09-3.21-8a16.62,16.62,0,0,0-.64-4.45,8.3,8.3,0,0,0-6.18-5.82c-1.4-.28-3.07-.33-4.14.71-2,2.62.93,5.7,3.06,7.25,1.76,1.4,6.07,3.66,3.09,6.17-1.79,1-3.91.1-5.63-.64a25.91,25.91,0,0,1-7.51-5.2c-4.31-4.41-6.63-10.24-9.13-15.75a20.56,20.56,0,0,0-5.23-7.37c-2.62-2.67-6.25-4.71-7.69-8.32-1.32-3.86.39-14.39-6.38-11.78Z" style="fill: #8CCBBE; opacity: 0.7; transform-origin: 245.98px 374.471px;" class="animable" id="el9unn7yjk01"></path></g><g id="el8hbcab7iymp"><path d="M97.66,319.36c1.59,3,5.15,4,7.17,6.1.19.36-.25.77-.52.77-1,0-1.63.12-1.73,1.18,0,1.31,1.54,2,2.51,2.72,1.61,1.08,3.2,1.95,4.81,3.08,4.92,3.56,5.29,10.14,7.65,15.2a34.4,34.4,0,0,0,15.93,14.88c9,3.71,18.47,5.83,27.56,9.31,3.38,1.55,5.9,4.46,8.21,7.25,4.76,6,8.56,12.59,12.35,19.18a46.6,46.6,0,0,0,7.07,8.74c10.61,10.93,25,17.37,39.89,19.7a37.45,37.45,0,0,1,11,3.25c5,2.31,10.21,5.3,15.59,3.2,3.46-1.4,7-3.41,10.77-4,12.15-2.39,17.47,4.87,23.59,13.76a9.81,9.81,0,0,0,1.73,1.85,8,8,0,0,0,4.66,1.68,11.25,11.25,0,0,1,4.59.65c2,1,3.85,2.33,6.17,2.24,4.52-.31,8.68-2.91,12.76-4.81,4.82-2.63,10.08-5.19,14.06-8.94,2.47-2.76,3.67-6.49,5.93-9.56a11.65,11.65,0,0,1,4.77-3.64c3.29-1.57,7.15-2.57,9-5.85,2.74-4.9,5-10.36,8.78-14.68,3.82-4.58,10.39-4.66,14.69-8.58l.13.15c-2.86,2.75-6.49,3.83-9.9,5.52-6.72,3.7-9,11.83-12.56,18.23-2.37,4.53-8,5.3-11.8,8-2.19,1.67-3.22,4.25-4.53,6.69a24.1,24.1,0,0,1-3.17,5,25.64,25.64,0,0,1-4.59,3.72c-6.5,4.17-13.16,8-20.51,10.42a10.53,10.53,0,0,1-6.19,0c-2-.63-3.62-2.1-5-2.24a19.17,19.17,0,0,0-2.71-.12,9.92,9.92,0,0,1-5.85-2.1,11.88,11.88,0,0,1-2.14-2.29c-4.18-5.88-8.31-13-16.16-13.52-15.79-.49-14.68,10.71-32.72.55a36.31,36.31,0,0,0-10.63-3.41c-11.18-2.15-22.23-6.1-31.43-12.93-6.12-4.52-11.9-9.69-16-16.16C177,393,173,386.52,168.17,380.74c-2.43-2.8-5-5.65-8.4-6.85-8.82-3.2-18.25-5.27-27-9.05A35.6,35.6,0,0,1,116.24,349c-2.59-6.18-2.58-13.17-9.29-16.57a23,23,0,0,1-4.6-3.54,2.16,2.16,0,0,1-.5-1.59,1.91,1.91,0,0,1,.85-1.46,3.52,3.52,0,0,1,1.56-.27h0s0,.08,0,.06l0-.06c-2.26-2-5.37-3.33-6.74-6.18l.18-.08Z" style="fill: #8CCBBE; opacity: 0.7; transform-origin: 237.15px 385.773px;" class="animable" id="el37mpavoa1jb"></path></g><path d="M119.57,345a48.87,48.87,0,0,0,8.66,11.43,16.19,16.19,0,0,0,5.89,3.78c2,.66,5,1.61,6.62-.3a2.37,2.37,0,0,1-1.36,1.2c-4.21,1.25-8.83-1.07-11.84-4a32.89,32.89,0,0,1-8-12.15Z" style="fill: rgb(255, 255, 255); transform-origin: 130.14px 353.208px;" id="el7ia0b5ci2g7" class="animable"></path><path d="M171.08,378.41c5.12,5.53,8.58,12.32,12.6,18.59a37.83,37.83,0,0,0,4.82,6.73c3.39,3.2,7.9,4.84,12.29,6.26,3.27,1.06,7.65,2.07,10.78,3.59,3.37,1.87,6.21,4.18,9.45,6.12,5.87,3.82,14.25,6.41,20.13,1.39l.16.13c-2.42,3.12-6.66,4.26-10.47,4-7.92-.37-13.92-6-20.17-10-3.17-1.62-6.94-2.72-10.26-4.21-5.13-2.28-10.65-4.43-14.53-8.67-6.43-7-10-15.94-14.95-23.81l.15-.13Z" style="fill: rgb(255, 255, 255); transform-origin: 206.12px 401.828px;" id="eltk74qmq2h4" class="animable"></path><path d="M247.21,431.13c3.14-.45,5.53-2.68,8-4.42a90.22,90.22,0,0,1,7.78-5.42c5.34-3.45,9.4-1.25,13.55,2.59a18.23,18.23,0,0,0,3.72,2.82,13.24,13.24,0,0,1-4.31-2c-2.7-1.69-5.77-4-9-3-3.93,1.49-7.16,4.25-10.87,6.39-2.68,1.51-5.69,3.53-8.91,3.12Z" style="fill: rgb(255, 255, 255); transform-origin: 263.715px 425.418px;" id="elhyr2p0txnt8" class="animable"></path><path d="M289.78,407.13a4.12,4.12,0,0,0-3,3.22c-.53,1.51-.83,3.14-1.41,4.76a11.45,11.45,0,0,1,0-2.55c.13-2.39,1.43-6.13,4.48-5.43Z" style="fill: rgb(255, 255, 255); transform-origin: 287.574px 411.077px;" id="elclhzhfhh3ck" class="animable"></path><path d="M294.54,440.84c3.78-.63,7.48-2.38,11.45-1.65,3.17.46,6.18,1.81,9.2.66,1.85-1.18,2.42-3.5,3.77-5.45a8.74,8.74,0,0,1,4.52-3.76c3.58-1.32,7.7-.32,11.06-2.14a9.43,9.43,0,0,0,3.81-3.65c2.95-4.94,4.76-10.56,8.68-15,5.6-5.25,13.38-8.18,18.49-13.52-1.67,3.51-5.21,5.71-8.14,8.09-2.59,2-6.61,4.65-8.8,6.92-4.07,4.55-6,10.72-9.86,15.51a11.17,11.17,0,0,1-3.73,2.57c-5.41,2.16-12.21-.86-15.08,5.49-1.12,2-1.61,4.95-3.86,6.4-3.27,1.7-7.16.07-10.34-.63a16.33,16.33,0,0,0-5.45-.14,37.69,37.69,0,0,1-5.71.46v-.2Z" style="fill: rgb(255, 255, 255); transform-origin: 330.03px 419.194px;" id="elcwfqs2d5qfp" class="animable"></path><path d="M371.15,380.13c-3.06,1.9-2.76,5.71-3.7,8.85-.61-3.1-.19-8.29,3.7-8.85Z" style="fill: rgb(255, 255, 255); transform-origin: 369.186px 384.555px;" id="eli5mv50uv0m" class="animable"></path><path d="M380.3,381.77c2.4-3.29,6.69-6.3,10.93-5.38-4.17.55-7.48,3.1-10.93,5.38Z" style="fill: rgb(255, 255, 255); transform-origin: 385.765px 378.996px;" id="eleiw22lmee5i" class="animable"></path><path d="M135,349.83c-3.5-5,4.49-4.93,6.5-1.85a6.33,6.33,0,0,1,1.36,3.21,7.23,7.23,0,0,0-4.65-4.19c-2.56-.57-4.27-.21-3.21,2.83Z" style="fill: rgb(255, 255, 255); transform-origin: 138.492px 348.514px;" id="elgeg0zgzjvbn" class="animable"></path><path d="M98.35,311.69a3.41,3.41,0,0,1,3.25,1.12c2.45,2.68,1.53,6.92,2.92,9.87.9,2.1,2.89,3.41,4.37,5.11a45.15,45.15,0,0,1,4.31,5.46,71.44,71.44,0,0,0-7.39-7.27,9,9,0,0,1-2.19-2.89c-1.92-3.73.39-10.95-5.27-11.4Z" style="fill: rgb(255, 255, 255); transform-origin: 105.775px 322.437px;" id="eluhvacfcqw6" class="animable"></path><g id="elae3z0z4tb3h"><path d="M310.68,456.64c7.05-.86,14-2.42,21-3.41a154.72,154.72,0,0,0,21.06-3.61c2.16-.52,4.37-1.07,6.57-1.44a1.48,1.48,0,0,0,.83-.32c1.39-1.67.59-4.63.34-6.79-.58-3.52-1.43-7-1.79-10.56a11.32,11.32,0,0,1,.69-5.6,65.21,65.21,0,0,1,4.38-9.84l.18.08c-1.23,3.83-2.5,7.6-3.34,11.47a9.39,9.39,0,0,0,0,3.66c.35,4.2,5.06,17.63-.28,19.42-5.85.83-12.16,1.52-17.93,2.75-7,1.59-13.88,3.4-21,4.06a53.52,53.52,0,0,1-10.74.33v-.2Z" style="fill: #8CCBBE; opacity: 0.7; transform-origin: 337.295px 436.02px;" class="animable" id="el4e7dbbm0ml8"></path></g><g id="elqlvjl7q0u7"><path d="M189.88,455.05a108,108,0,0,1,19.94.68c6.66.21,13.32-.64,20-.37,4.43.13,8.9.46,13.29,1l0,.19a95.87,95.87,0,0,1-20,.7c-4.44-.14-8.86-.94-13.31-.89s-8.89.59-13.34,0a32.37,32.37,0,0,1-6.63-1.17l0-.19Z" style="fill: #8CCBBE; opacity: 0.7; transform-origin: 216.47px 456.174px;" class="animable" id="elu6vvazses87"></path></g><g id="elt1qwuedb2vd"><path d="M139.62,411.09a143.75,143.75,0,0,1,6.06,23.12,58.24,58.24,0,0,1,1.06,8.91c.64,1.58,1.34,3.57,3.25,4,2.89.8,5.72,1.77,8,3.91l-.07.19a9.91,9.91,0,0,1-3.1-.27,11.35,11.35,0,0,1-4.12-2,15.6,15.6,0,0,0-3.72-2.82,3.53,3.53,0,0,1-1.29-1.12,3.25,3.25,0,0,1-.38-2.67,12.3,12.3,0,0,0,0-2.1,164.15,164.15,0,0,0-5.82-29.12l.19-.07Z" style="fill: #8CCBBE; opacity: 0.7; transform-origin: 148.74px 431.147px;" class="animable" id="el5ja7a8xf194"></path></g><path d="M115.46,355.84c1.11,3.59,3.52,6.52,6,9.25,4.41,4.92,9.93,8.67,14.28,13.68,4.73,7.35,4.53,16.45,6.7,24.59,3.12,8.85,5.45,17.93,7.92,27a12.68,12.68,0,0,0,1.22,3.24.36.36,0,0,0-.32,0c.32-3.59-1.27-8.08-2.59-11.78-.57-2-1.51-3.77-1.21-5.93a1.5,1.5,0,0,1,1.16-1.19c.9,0,1,.38,1.38.81a20.87,20.87,0,0,1,1.67,4.14c.79,2.25,1.89,6.88,3.11,8.83a.83.83,0,0,0-.33-.13.7.7,0,0,0-.62.23c-.18.3-.06.14-.09,0-.23-2.07-1.26-4.39-1.87-6.47a3.15,3.15,0,0,1-.21-1.41,1.11,1.11,0,0,1,1.91-.52c2.16,3.36,3.25,7.31,5.42,10.59,0,0,0,0-.31-.15a.81.81,0,0,0-.83.33,14.47,14.47,0,0,0-.14-4.73l-.05-.24s0,0,0,0c-1.52.22,2.09-.14,1.64-.7.83,2,1.93,4.43,2.91,6.51,1,1.9,1.83,4.2,3.15,5.78a.56.56,0,0,0-.26,0,.39.39,0,0,0-.27.23c.08-1.35-.46-2.81-.54-4.26,0-.21-.06-.33.33-.58s.46.09.52.09a7.81,7.81,0,0,1,1,1.91,56.76,56.76,0,0,0,3.51,7.63l-.15.12c-2-2.57-3.24-5.8-4.77-8.62a2.14,2.14,0,0,0-.16-.27s-.07-.09,0,0,0,.15.44.06a.48.48,0,0,0,.28-.33,39.6,39.6,0,0,1,.78,4.18,1,1,0,0,1-.61,1c-.95.16-1.45-.89-1.8-1.31a51.17,51.17,0,0,1-2.82-5c-1.1-2.18-2.22-4.41-3.22-6.64-.46-.61,3.18-.89,1.68-.66l.07.18c.38,1.45,1.57,7.68-1.13,7.19a1.67,1.67,0,0,1-.95-.74c-2.08-3.23-3.4-6.77-5.19-10.08,0-.07-.14-.2-.05-.1s0,0,.13.11a1,1,0,0,0,1,.11c.72-.44.6-.68.65-.89v0a3.86,3.86,0,0,0,.15.54c.41,1.31.9,2.69,1.3,4s1.42,3.89-.34,4.79c-2.19.75-2.88-3.35-3.42-4.69-.83-2.46-1.8-7-3.06-9.24a.59.59,0,0,0,.42.1c.4-.1.32-.16.35-.17s0,0,0,0c-.14,1.6.6,3.41,1,5,1.14,3.6,2.34,7.34,2.19,11.19,0,.71-.12,2.41-1.26,1.94-1-.88-1.15-2.7-1.54-3.9-1.32-5.29-2.71-11.13-4.31-16.3-1-3.64-2.64-7-3.89-10.57-2.22-7.11-2.91-14.76-5.74-21.58-1.45-3.4-4.55-5.59-7.1-8.17-4-3.9-8.25-7.88-11.17-12.77a16.78,16.78,0,0,1-2.11-5.26l.2-.05Z" style="fill: #8CCBBE; transform-origin: 142.475px 399.235px;" id="eljjs3qalvw5n" class="animable"></path><path d="M369.34,402.46a46.67,46.67,0,0,0-5.4,9.18,116.12,116.12,0,0,0-6.08,14.77c-.09,5.32.74,10.67,1.08,16,0,.43.14.9-.12,1.3-.77.54-.85-1.2-1-1.6l-.46-2.64a10.92,10.92,0,0,0-.49-2,.37.37,0,0,0,.35.15.39.39,0,0,0,.26-.15c.07-.11,0,0,0,0-.26,2.22.15,4.58-.28,6.8a.61.61,0,0,1-.8.33c-.57-.36-.62-.92-.87-1.47-.34-.94-.76-2.34-1-3.05a.5.5,0,0,0,.43.16.48.48,0,0,0,.39-.31V440c0,.19-.08,1.4-.1,1.62a10.7,10.7,0,0,1-.49,3.57.84.84,0,0,1-.71.38c-1.14-.16-1.71-1.3-2.56-1.81a.31.31,0,0,0,.14,0,.22.22,0,0,0,.09-.06c-.29.66-.31,1.43-.58,2.14s-1.16,1.68-2.05,1c-.35-.22-.6-.4-1-.32-.57.16-.75.83-1.21,1.28-.93,1.1-2.47,1.29-3.74,1.7l-2.59.7,0-.1c2-.86,4.42-1.14,5.92-2.67.54-.79,1.09-2,2.34-1.57.54.17.94.54,1,.44.94-.57.57-2.21,1.14-3.11.42-.64,1.18-.14,1.52.18a12.73,12.73,0,0,0,1.48,1.18c.06,0,.12,0,.1,0s-.17.07-.16.08a31.13,31.13,0,0,0,.4-4.78.82.82,0,0,1,.23-.54.5.5,0,0,1,.3-.14.61.61,0,0,1,.43.13,2.53,2.53,0,0,1,.43.9c.22.64.86,2.84,1.16,3.41l.06.1-.1-.06a.44.44,0,0,0-.54.19,29.16,29.16,0,0,0,.18-3.65,22.58,22.58,0,0,1,.18-2.93.78.78,0,0,1,.13-.33c.34-.42.85-.08.93.34.53,1.74.56,4.2,1,6,0,0,.07.09,0,0-.3-.14-.37.16-.34.09.17-5.68-.87-11.36-1.07-17,1.18-5.3,3.58-10.2,6-15,1.71-3.14,3.44-6.38,6-8.91l.07.07Z" style="fill: #8CCBBE; transform-origin: 354.945px 426.325px;" id="eldl0nuuyd9c" class="animable"></path><g id="el3fz7po0110q"><g style="opacity: 0.4; transform-origin: 213.525px 336.44px;" class="animable" id="elasl31q5zzq5"><polygon points="213.53 336.44 213.53 336.44 213.53 336.44 213.52 336.44 213.53 336.44" style="fill: #8CCBBE; transform-origin: 213.525px 336.44px;" id="elvlxt9yysvc" class="animable"></polygon></g></g><g id="elujbp52fb"><path d="M161.51,345.35a1.09,1.09,0,0,0-.54-1.26.7.7,0,0,0-.3-.12.81.81,0,0,0-.34,0,1.52,1.52,0,0,0-.47.1.76.76,0,0,0-.25.19,1,1,0,0,0-.26.39.78.78,0,0,0,0,.33,1.14,1.14,0,0,0,.3.73,1.48,1.48,0,0,0,.54.35,1.13,1.13,0,0,0,.63,0,.87.87,0,0,0,.61-.54h0A.67.67,0,0,0,161.51,345.35Z" style="fill: #8CCBBE; opacity: 0.4; transform-origin: 160.442px 345.028px;" class="animable" id="elws7y1edahv"></path></g><g id="elo2ilxdgve1i"><path d="M94.56,317.27a1.11,1.11,0,0,0-.54-.13,1.26,1.26,0,0,0-1.24,1.25.68.68,0,0,0,.08.31,1,1,0,0,0,.09.13.69.69,0,0,0,.2.13.42.42,0,0,0,.22.05h.18a.58.58,0,0,0,.18-.08,1,1,0,0,0,.34.41.68.68,0,0,0,.4.07.46.46,0,0,0,.23-.06.55.55,0,0,1,.14-.09,1.25,1.25,0,0,0,.34-.9,2.06,2.06,0,0,0,0-.26,1.45,1.45,0,0,0-.09-.25,1,1,0,0,0-.21-.32A1.32,1.32,0,0,0,94.56,317.27Z" style="fill: #8CCBBE; opacity: 0.4; transform-origin: 93.982px 318.278px;" class="animable" id="elvhpxopzm8ea"></path></g><g id="eljveuxsi17yf"><path d="M93.85,308a1.37,1.37,0,0,0,.34-.34.8.8,0,0,0,.12-.58,1,1,0,0,0,0-.24h0a.59.59,0,0,0-.09-.24,1.41,1.41,0,0,0-.35-.34h0a.89.89,0,0,0-.34-.16.48.48,0,0,0-.29,0h-.25a1.35,1.35,0,0,0-.58.24.92.92,0,0,0-.28.24,1.93,1.93,0,0,0-.17.21,1.46,1.46,0,0,0-.1.23.7.7,0,0,0,0,.35.59.59,0,0,0,.16.29,1.49,1.49,0,0,0,.62.42,1.57,1.57,0,0,0,.58.09A1.26,1.26,0,0,0,93.85,308Z" style="fill: #8CCBBE; opacity: 0.4; transform-origin: 93.08px 307.124px;" class="animable" id="elrwldfiqgnps"></path></g><g id="elgo5ex4hnqr"><path d="M128.76,343.25a1.5,1.5,0,0,0,.21-.66c0-.15,0-.29,0-.42s0-.56-.22-.68a.13.13,0,0,1-.07-.08s0-.05-.07-.08a1.24,1.24,0,0,0-.18-.14.26.26,0,0,0-.15,0,.16.16,0,0,0-.05-.09,1.43,1.43,0,0,0-1.17-.45,2.11,2.11,0,0,0-1.15.43,1.65,1.65,0,0,0-.56.91,1.62,1.62,0,0,0,.24,1.3,2.07,2.07,0,0,0,1,.81A1.77,1.77,0,0,0,128.76,343.25Z" style="fill: #8CCBBE; opacity: 0.4; transform-origin: 127.137px 342.425px;" class="animable" id="elh9im6042czr"></path></g><g id="elv5ih6ebfvy"><path d="M128.33,336a3.31,3.31,0,0,0,.64-2,2.91,2.91,0,0,0-.14-1,3.79,3.79,0,0,0-.44-.85,0,0,0,0,0,0,0,3,3,0,0,0-1.35-2.16,2.42,2.42,0,0,0-2.39,0,2.82,2.82,0,0,0-1.37,1.95,3.81,3.81,0,0,0,.5,2.7,7.67,7.67,0,0,0,.79,1.08,4.57,4.57,0,0,0,.89.92,2,2,0,0,0,1.62.31A2.49,2.49,0,0,0,128.33,336Z" style="fill: #8CCBBE; opacity: 0.4; transform-origin: 126.093px 333.34px;" class="animable" id="elpatarvr0gj"></path></g><g id="elx9vd7v3rce"><path d="M161.59,363.71a3.19,3.19,0,0,1-.11.33.52.52,0,0,0,0,.37.36.36,0,0,0,.12.15.24.24,0,0,0,.1.06.41.41,0,0,0,.19,0h.13a.48.48,0,0,0,.16-.08l.13-.13a0,0,0,0,1,0,0s0-.07,0-.09l.12-.32c0-.05,0-.1,0-.16a.85.85,0,0,0,0-.17.36.36,0,0,0,0-.25.42.42,0,0,0,0-.1.24.24,0,0,0-.12-.14.15.15,0,0,0-.09-.06.3.3,0,0,0-.18,0h-.12a.34.34,0,0,0-.16.08.49.49,0,0,0-.13.12l-.08.16C161.65,363.54,161.63,363.62,161.59,363.71Z" style="fill: #8CCBBE; opacity: 0.4; transform-origin: 161.949px 363.869px;" class="animable" id="elqc5c0vpktnm"></path></g><g id="elq1j9j0e6fpa"><path d="M175.67,351.54a.61.61,0,0,0,.06-.21.41.41,0,0,0,0-.21v0s0-.1,0-.14a.74.74,0,0,0,0-.14,1.25,1.25,0,0,0-.19-.34,1,1,0,0,0-.23-.23s0,0-.05,0l0,0-.16-.11a1.3,1.3,0,0,0-.62-.12.09.09,0,0,0-.08.08s0,.07,0,.09a1.69,1.69,0,0,0-.24.08,1.65,1.65,0,0,0-.61.75,1.43,1.43,0,0,0-.08.79.88.88,0,0,0,.6.76,1.5,1.5,0,0,0,.84,0,2.15,2.15,0,0,0,.37-.19,1.24,1.24,0,0,0,.54-.72Z" style="fill: #8CCBBE; opacity: 0.4; transform-origin: 174.633px 351.344px;" class="animable" id="elxpmgda09c1a"></path></g><g id="elnep16k6j7y"><path d="M138.2,342.35a1.68,1.68,0,0,0,1.3-2,3.2,3.2,0,0,0-1.25-1.77c-.84-.65-1.77-1.2-2.67-1.79a6.17,6.17,0,0,0-2.48-1.27,1.67,1.67,0,0,0-2,1.71,3.24,3.24,0,0,0,1.5,2.38,4.28,4.28,0,0,0,2.22.75c.3.31.6.62.91.92A3.11,3.11,0,0,0,138.2,342.35Z" style="fill: #8CCBBE; opacity: 0.4; transform-origin: 135.318px 338.92px;" class="animable" id="eldnmxvrf639"></path></g><g id="elitbql5ea6na"><path d="M169.42,352.63a3.17,3.17,0,0,0-.88-3.5,4.2,4.2,0,0,0-4.16-.73,5.83,5.83,0,0,0-3.93,4.94,4.64,4.64,0,0,0,.91,3.24,3.17,3.17,0,0,0,3.27,1.27,4.25,4.25,0,0,0,2.29-2,11.81,11.81,0,0,1,.77-1.17c.28-.37.81-.77,1.15-1.19a2.84,2.84,0,0,0,.28-.51A.84.84,0,0,0,169.42,352.63Z" style="fill: #8CCBBE; opacity: 0.4; transform-origin: 165.025px 353.032px;" class="animable" id="el43a2zyji069"></path></g><g id="el0dw1buh1qwdr"><path d="M102.62,304.57a3.17,3.17,0,0,0,3.6-.28,4.2,4.2,0,0,0,1.42-4,5.82,5.82,0,0,0-4.2-4.71,4.63,4.63,0,0,0-3.35.35,3.15,3.15,0,0,0-1.8,3,4.28,4.28,0,0,0,1.57,2.6,11.58,11.58,0,0,1,1,1c.32.33.62.92,1,1.33a2.71,2.71,0,0,0,.46.36A.72.72,0,0,0,102.62,304.57Z" style="fill: #8CCBBE; opacity: 0.4; transform-origin: 103px 300.208px;" class="animable" id="el8dcu5nzp3v2"></path></g><g id="elxe1ur7brv6f"><path d="M158.19,354.26a1.14,1.14,0,0,0-.07-.75.58.58,0,0,0-.21-.26,2.73,2.73,0,0,0-.14-.58,1.49,1.49,0,0,0-.24-.43A.64.64,0,0,0,157,352a1.76,1.76,0,0,0-1.34.26,2.15,2.15,0,0,0-.8,1,1.66,1.66,0,0,0,1.75,2.23,1.84,1.84,0,0,0,1-.38A1.31,1.31,0,0,0,158.19,354.26Z" style="fill: #8CCBBE; opacity: 0.4; transform-origin: 156.489px 353.732px;" class="animable" id="el3s6gaydwwl6"></path></g><g id="el53zkwegwubi"><path d="M404.38,347.5a3.07,3.07,0,0,0-1.68,1,.27.27,0,0,1-.07.08,2.78,2.78,0,0,0-1,1,2.47,2.47,0,0,0-.25,2c.16.41.48.84,1,.82s.84,0,1.25-.08a4.26,4.26,0,0,0,2.36-.85,2.81,2.81,0,0,0,1-1.83,2,2,0,0,0-.77-1.83A2.3,2.3,0,0,0,404.38,347.5Z" style="fill: #8CCBBE; opacity: 0.4; transform-origin: 404.139px 349.914px;" class="animable" id="elb139q4jb73d"></path></g><g id="el2clt8o3efyk"><path d="M406.36,357.43a6.42,6.42,0,0,0-1.78.68,25.24,25.24,0,0,0-3.09,2.19c-.26.09-.52.16-.78.27a29.68,29.68,0,0,0-2.84,1.23,4,4,0,0,0-1.83,1.65,2.3,2.3,0,0,0,.89,3.25,3.46,3.46,0,0,0,3.44-.72c1.18-1,1.75-2.67,3.26-3.31s3.34-.52,4.55-1.91a2.92,2.92,0,0,0,.76-1.79,1.72,1.72,0,0,0-.69-1.51A3.46,3.46,0,0,0,406.36,357.43Z" style="fill: #8CCBBE; opacity: 0.4; transform-origin: 402.32px 362.098px;" class="animable" id="el6j6sh7dqcvy"></path></g><g id="el4p5eo2cqesb"><path d="M384.21,353.59a2.29,2.29,0,0,0-1.27.49,2.73,2.73,0,0,0-.9.6,2.81,2.81,0,0,0-.74,1.28,1.22,1.22,0,0,0,.09,1,1,1,0,0,0,.74.47,1.88,1.88,0,0,0,.85-.09l.31-.11.11,0h.09l0,0,0,0a1,1,0,0,0,.32.22,1,1,0,0,0,1-.26,3.4,3.4,0,0,0,1-1.43c.23-.56.56-1.31,0-1.77A2.62,2.62,0,0,0,384.21,353.59Z" style="fill: #8CCBBE; opacity: 0.4; transform-origin: 383.675px 355.537px;" class="animable" id="ell8si3znzx3o"></path></g><g id="elbxiipn8xzbn"><path d="M382.1,359.2a1,1,0,0,0-.71.39,1.17,1.17,0,0,0-.23.77,1,1,0,0,0,.38.68,1,1,0,0,0,.77.15.83.83,0,0,0,.6-.47.87.87,0,0,0,0-.69.32.32,0,0,0,.17-.22.42.42,0,0,0-.17-.36,1,1,0,0,0-.32-.19A1,1,0,0,0,382.1,359.2Z" style="fill: #8CCBBE; opacity: 0.4; transform-origin: 382.119px 360.202px;" class="animable" id="elksb4gheh1bl"></path></g><g id="elog8on4vwkla"><path d="M372.32,363.73a.49.49,0,0,0-.21,0,.8.8,0,0,0-.36.29,1,1,0,0,0-.14.44.81.81,0,0,0,.05.27,1.45,1.45,0,0,0-.19.23.22.22,0,0,0-.31.23.67.67,0,0,0,.22.45l.06,0a.35.35,0,0,0,.05.13.48.48,0,0,0,.55.16,2.29,2.29,0,0,0,1-.58,1.12,1.12,0,0,0,.28-.93.9.9,0,0,0-.27-.54.88.88,0,0,0-.46-.21h-.24Z" style="fill: #8CCBBE; opacity: 0.4; transform-origin: 372.246px 364.815px;" class="animable" id="elq7db3khukc"></path></g><g id="eljdmh848xpn"><path d="M380.87,363.45a1.65,1.65,0,0,0-1.39.63l0,0a2.57,2.57,0,0,0-.88,1.16.08.08,0,0,0,0,.07l-.27.44c-.42.64-.81,1.3-1.19,2-.68,1.14-1.39,2.29-2,3.48a2,2,0,0,0,.69,2.63c2.1,1.39,4.47-1.05,5.5-2.68a20.43,20.43,0,0,0,1.51-3,3.59,3.59,0,0,0,.33-3,2.62,2.62,0,0,0-1.54-1.42A1.18,1.18,0,0,0,380.87,363.45Z" style="fill: #8CCBBE; opacity: 0.4; transform-origin: 379.13px 368.86px;" class="animable" id="elonz6vy2f5z"></path></g><path d="M102,296.49c-1.32,1.35-3.74,1.05-1.77,3.42a16.43,16.43,0,0,1,1,1.42l0,.06c-1.19-.32-2.54-1.52-2.11-2.87a3,3,0,0,1,2.87-2.1l0,.07Z" style="fill: rgb(255, 255, 255); transform-origin: 100.519px 298.905px;" id="elxqfjxg5oq7b" class="animable"></path><path d="M126.1,330.57a3.2,3.2,0,0,1-1,.95c-.4.14-.82.46-.72.94.09.73.94,1.77.85,2.43a2,2,0,0,1-.89-3.16,1.66,1.66,0,0,1,1.69-1.23l0,.07Z" style="fill: rgb(255, 255, 255); transform-origin: 124.992px 332.694px;" id="eljxxllvv1avf" class="animable"></path><path d="M132.76,336.14c-.7.93-.74,2.9.63,3.08l1,.14c1.1,0,1.94,1.13,2.45,2-.4.08-1.45-.8-1.79-1a12.51,12.51,0,0,1-1.82-.77c-.9-.59-2-1.62-1.42-2.81a1.28,1.28,0,0,1,.91-.7l0,.06Z" style="fill: rgb(255, 255, 255); transform-origin: 134.244px 338.723px;" id="el6ioyx1qlh8k" class="animable"></path><path d="M166.39,348.56a15.25,15.25,0,0,1-2.83,1.53c-1.36,1.16-1.77,2.91-2.06,4.63l-.08,0c-1-2,.37-3.79,2-4.85a3.6,3.6,0,0,1,3-1.4l0,.07Z" style="fill: rgb(255, 255, 255); transform-origin: 163.75px 351.593px;" id="ell3r1zpz8rue" class="animable"></path><path d="M376.43,373a1.4,1.4,0,0,1-.48-1.3c.09-1.42,1.41-2.19,1.9-3.45s1.26-4.1,3.31-3.64v.08c-1.66.5-1.73,2.67-3,3.8a4.78,4.78,0,0,0-1.24,2.2c-.27.77-.7,1.44-.45,2.26l-.06,0Z" style="fill: rgb(255, 255, 255); transform-origin: 378.546px 368.78px;" id="eln8xhscsp4pl" class="animable"></path><path d="M397,365.12c-.41-2.59,2.72-3.45,4.64-4.11s3.43-3.53,5.66-2.68c-1.72.31-2.26,1.49-4,2.5-.88.73-2.16.44-3.15,1-1.22.84-2.66,1.83-3.1,3.31Z" style="fill: rgb(255, 255, 255); transform-origin: 402.132px 361.657px;" id="elx4k4d75yilg" class="animable"></path><path d="M402.11,351.27a1.38,1.38,0,0,1,.58-1.78c.39-.54.58-1.24,1.28-1.53.41-.24,1.43,0,1.35.29a3.52,3.52,0,0,0-1,.44c-.41.25-1.13.46-1.42.94a3.35,3.35,0,0,1-.7,1.64Z" style="fill: rgb(255, 255, 255); transform-origin: 403.654px 349.566px;" id="elfoe37od81bq" class="animable"></path><g id="eln36wlok4yvm"><path d="M240,376a9.34,9.34,0,0,0-1.33,4.15c0,.92,0,1.83.08,2.66.09,1.25.88,4.24,4.16,7.4,1.92,1.83,5.32,3.41,7.89,3.16a11.32,11.32,0,0,0,10.81-9.22,10.15,10.15,0,0,0-1.5-8.15,13.19,13.19,0,0,0-6.65-5.16A11.18,11.18,0,0,0,240,376Z" style="fill: #8CCBBE; opacity: 0.4; transform-origin: 250.284px 381.808px;" class="animable" id="elc4373g6ld2p"></path></g><path d="M243,386.83a5.86,5.86,0,0,1-2.25-6.63c.12-.42.34-1,.49-1.38,1.23-5.5,5.69-8.45,11.16-6.7v.2c-1.84.66-3.51,1.09-5,1.76a24,24,0,0,0-2.23,1.07c-1.57,1.05-3.35,2.4-3.35,4.49a69,69,0,0,0,1.39,7.07l-.17.12Z" style="fill: rgb(255, 255, 255); transform-origin: 246.433px 379.223px;" id="elx51tqphg10l" class="animable"></path><g id="elkr3006bgxu"><path d="M257.77,376.78a7.35,7.35,0,0,1,1.2,8,8.68,8.68,0,0,1-5.74,6,11.31,11.31,0,0,1-5.63.09v-.1c4.26-.44,9.52-1.53,11.05-6.05a7.28,7.28,0,0,0,.17-2.67,16.18,16.18,0,0,0-1.15-5.2l.09-.05Z" style="fill: #8CCBBE; opacity: 0.7; transform-origin: 253.625px 383.981px;" class="animable" id="elbdujmb6g93"></path></g></g><g id="freepik--Floor--inject-10" class="animable animator-hidden" style="transform-origin: 250px 459.18px;"><path d="M46.66,459.18c130.27-.61,276.41-.62,406.68,0-130.27.62-276.41.61-406.68,0Z" style="fill: rgb(38, 50, 56); transform-origin: 250px 459.18px;" id="elia2dwqgvl3" class="animable"></path></g><g id="freepik--Leaves--inject-10" class="animable animator-hidden" style="transform-origin: 95.06px 103.53px;"><path d="M167.41,207.06c-.21-.06-11.84-12.69-38.59-21.28l-3.14-1c-4.28-1.26-9-2.42-14-3.42l-1.12-.21c-.9-.18-1.83-.34-2.77-.5-8.5-1.45-16.43-6.21-22.71-12.29C78.42,162,75.61,153.65,73.25,145c-2.68-9.84-5.86-22.09-16.59-26-.92-.33-1.86-.63-2.78-.87-1.2-.32-2.41-.57-3.6-.8-5.58-1-11.07-1.39-16-4.2A19.35,19.35,0,0,1,31,110.82l-.71-.65C24,104.24,20.84,95.73,18.42,87.66a231.43,231.43,0,0,1-7.25-32.83C9.55,43.77,10,31.48,4.6,21.42A36.39,36.39,0,0,0,0,14.8V7.63H0C7.85,11,15.67,14.28,23.37,17.85c1.16.53,2.31,1.06,3.45,1.61,4.64,2.2,9.23,4.51,13.73,7A136.33,136.33,0,0,1,72.4,50.75c.73.75,1.46,1.51,2.18,2.28.37.36.72.74,1.06,1.12,1.21,1.29,2.39,2.61,3.57,4,.83,1,1.66,1.92,2.48,2.91l.26.3c12.93,15.4,27.86,29,43.14,42,2.43,2.07,4.95,4.1,7.36,6.23,1.62,1.42,3.18,2.87,4.64,4.42a39.87,39.87,0,0,1,4,4.82c.59.86,1.15,1.73,1.67,2.65.18.32.35.63.51,1,4,7.51,5.58,16.34,7.8,24.44C156.62,166.87,162.18,186.93,167.41,207.06Z" style="fill: rgb(69, 90, 100); transform-origin: 83.705px 107.345px;" id="elgrtiwei2l3o" class="animable"></path><path d="M153.86,177.3c-7.47-18.92-13.44-38.49-27.18-54.05l-.44-.49c2.9,11.21,3,22.94,6.53,34.07.14.42-.53.7-.7.3-5-11.11-4.29-23.76-6.87-35.5-11.73-12.72-26.46-22.4-38.57-34.78-5.56-5.66-10.91-11.49-16.3-17.26,11.06,24.09,14,51.53,30,73.59.26.35-.33.79-.6.46-9.26-11.2-14.62-24.74-19.08-38.43-4.25-13-8.14-26.12-13.32-38.81q-2.11-2.24-4.26-4.46C58,56.73,52.84,51.65,47.32,46.87c-.16-.14-.32-.28-.49-.41-1.76-1.52-3.54-3-5.34-4.48-6.11-5-12.41-9.72-18.83-14.27,2.63,5.35,3.85,11.43,4.89,17.42.47,2.66.9,5.29,1.4,7.84a125.4,125.4,0,0,0,15.17,38.9c.39.67-.61,1.24-1,.61A104.53,104.53,0,0,1,30.94,68.22a264.67,264.67,0,0,0,5.74,25.89.44.44,0,0,1-.84.24,112.67,112.67,0,0,1-6.46-31c-.54-1.83-1-3.66-1.48-5.51C26.61,52.41,25.74,47,24.61,41.64A70.55,70.55,0,0,0,19.52,25.5q-5.85-4-11.82-7.92Q3.88,15.09,0,12.67V9.2c1.05.62,2.1,1.26,3.15,1.9q4.55,2.76,9,5.64c7.36,4.72,14.59,9.68,21.59,14.94q1.47,1.08,2.91,2.19,4.24,3.27,8.37,6.67c.65.14,1.29.29,1.94.46q1.92.47,3.84,1A95.89,95.89,0,0,1,74.58,53c.37.36.72.74,1.06,1.12,1.21,1.29,2.39,2.61,3.57,4A179.72,179.72,0,0,0,52.85,44.49L52,44.14c-1.69-.71-3.4-1.39-5.13-2.06,3.16,2.66,6.27,5.38,9.29,8.2,3.65,3.38,7.12,6.94,10.49,10.58,9.8,10.56,18.8,21.85,29.18,31.85,2.5,2.41,5.08,4.71,7.7,7a106.76,106.76,0,0,1,28.92,9.86c1.62,1.42,3.18,2.87,4.64,4.42a166.05,166.05,0,0,0-32.16-13.08c10.46,9,21.34,17.43,29.29,28.9,9.76,14,16.13,30.84,20.94,47.15C155.42,177.79,154.18,178.09,153.86,177.3Z" style="fill: rgb(38, 50, 56); transform-origin: 77.5978px 93.4803px;" id="elqjwnqgco44n" class="animable"></path><path d="M190.12,85.08c-.18,0-13.77-5.22-37.36-1.74l-2.76.44c-3.73.64-7.73,1.52-12,2.66l-.93.25-2.29.66c-7,2.08-14.84,1.43-21.9-.84-7.43-2.38-12.71-7.69-17.75-13.4C91.42,68.88,87.14,64,82,61.32a16,16,0,0,0-9.15-1.78c-.83.1-1.65.22-2.45.38-1,.21-2,.47-3,.75l-.66.19c-1.2.35-2.38.72-3.56,1.08a27.18,27.18,0,0,1-9.56,1.53,16.47,16.47,0,0,1-3.37-.53l-.79-.23c-7-2.18-12.58-7.47-17.44-12.7q-2.22-2.4-4.38-4.88-1.49-1.73-2.94-3.49Q19,34.92,14.11,27.73C11.89,24.51,9.87,21,7.7,17.58A70.9,70.9,0,0,0,3.15,11.1,39.36,39.36,0,0,0,0,7.65l0,0V0H54.06c1.72.52,3.43,1.07,5.14,1.67.84.3,1.67.6,2.51.92.42.14.82.29,1.23.46q2.1.8,4.2,1.68c1,.41,2,.83,3,1.28C85.83,13,102.4,17.74,119,22c2.62.66,5.3,1.26,7.94,2,1.76.47,3.5,1,5.19,1.62A34,34,0,0,1,137,27.75c.77.42,1.53.88,2.27,1.38.25.18.5.35.74.54,5.83,4.23,10.37,10.35,15.09,15.68C166.84,58.53,178.59,71.72,190.12,85.08Z" style="fill: rgb(55, 71, 79); transform-origin: 95.06px 44.3042px;" id="elfnpt4o78wz8" class="animable"></path><path d="M168.65,67.5c-12.78-11.6-24.66-24.27-40.95-31l-.52-.2c6.41,7.44,10.88,16.34,17.74,23.49.26.27-.14.73-.43.49-7.93-6.6-12.16-16.49-18.53-24.46-13.69-5.28-28.54-7.13-42.4-12-6.35-2.23-12.61-4.67-18.88-7,17.45,14.21,30,34,50.44,44.79.33.16,0,.72-.29.57C103.59,57.09,94.43,48.79,85.9,40c-8.13-8.34-16-16.84-24.69-24.55A233.08,233.08,0,0,0,38.65,8.12c-8.58-2.23-17.24-3.95-26-5.35,5.73,4.4,9.81,11,14.13,16.69l.13.18A104.75,104.75,0,0,0,50.82,42.05q1.11.78,2.25,1.53a.5.5,0,0,1-.22.91.43.43,0,0,1-.34-.06L52,44.14Q49.44,42.66,47,41a89.43,89.43,0,0,1-12.8-10.49c.82,1.13,1.64,2.25,2.49,3.36,3.22,4.31,6.58,8.49,10.16,12.59.47.54.94,1.08,1.42,1.61.31.36-.21.81-.55.5-2.15-2.07-4.23-4.28-6.21-6.59a96.42,96.42,0,0,1-7.73-10.3c-.9-1.41-1.77-2.83-2.59-4.27C30.07,26.22,29,25,28,23.76c-1.6-2-3.1-3.93-4.6-5.91C19.13,12.23,15.05,6.66,9.47,2.27Q4.75,1.57,0,1V0H13.06c7.21,1.1,14.39,2.47,21.48,4.15A79.37,79.37,0,0,1,61.71,2.59c.42.14.82.29,1.23.46q2.1.8,4.2,1.68a156.72,156.72,0,0,0-30.63-.09c3.4.84,6.79,1.75,10.15,2.76,15.8,4.72,30.44,12.43,46.11,17.44,2.8.9,5.63,1.69,8.48,2.43A90.47,90.47,0,0,1,127,23.94c1.76.47,3.5,1,5.19,1.62a141.18,141.18,0,0,0-29.39,2.1c11.32,2.91,22.77,5.27,33.13,11,12.68,7,23.84,17.44,33.62,28.06C170,67.29,169.18,68,168.65,67.5Z" style="fill: rgb(38, 50, 56); transform-origin: 84.84px 33.8348px;" id="el01mcqgekuom7" class="animable"></path></g><g id="freepik--Drop--inject-10" class="animable animator-active" style="transform-origin: 353.21px 148.61px;"><path d="M500,0V70.42a29.75,29.75,0,0,1-5.82,8.74l-.59.56a16.17,16.17,0,0,1-2.73,2.06c-4.13,2.51-8.78,3-13.48,4-1,.22-2,.47-3,.77-.78.23-1.57.5-2.34.81-9,3.57-11.38,14-13.41,22.46-1.77,7.41-3.95,14.56-9.4,20.15-5.17,5.32-11.78,9.56-18.95,11l-2.34.5c-.31.07-.63.13-.94.21-4.28,1-8.22,2.08-11.82,3.26l-2.64.9c-22.47,8-32,19-32.2,19,3.93-17.21,8.14-34.36,12.34-51.51,1.68-6.92,2.82-14.46,6-20.92.13-.28.27-.55.41-.82.42-.8.87-1.55,1.35-2.29a33.84,33.84,0,0,1,3.26-4.19c1.2-1.36,2.49-2.63,3.82-3.87,2-1.87,4.08-3.66,6.09-5.47.68-.62,1.36-1.23,2-1.86,12-10.94,23.64-22.36,33.69-35.13.67-.86,1.35-1.71,2-2.53q1.44-1.77,2.92-3.46c.28-.33.57-.65.87-1,.59-.68,1.19-1.33,1.79-2a115.9,115.9,0,0,1,26.4-21.42C486.5,6.52,489.75,4.74,493,3c2-1,4-2,6-3Z" style="fill: rgb(69, 90, 100); transform-origin: 440.17px 82.42px;" id="elb87k9r7jsss" class="animable"></path><path d="M500,4.47V9.91c-2.87,8-3.43,16.35-5.15,24.81-.33,1.58-.71,3.15-1.12,4.72A95.22,95.22,0,0,1,489,65.88a.37.37,0,0,1-.71-.18,224.07,224.07,0,0,0,4.21-22.11,88.77,88.77,0,0,1-9.69,20.89A.51.51,0,0,1,482,64,106.29,106.29,0,0,0,493.82,30.6c1.19-7.08,1.67-14.94,4.7-21.58-7,5.32-13.9,10.89-20.43,16.88A233,233,0,0,0,461.6,43c-4.08,10.89-7,22.08-10.31,33.26-3.44,11.72-7.64,23.34-15.21,33.08-.22.28-.73-.07-.52-.37,13-19.12,14.82-42.47,23.59-63.2-4.43,5-8.82,10.12-13.38,15.07-10,10.81-22.22,19.39-31.84,30.48-1.89,10-1,20.74-4.92,30.28-.13.35-.71.13-.6-.23,2.71-9.53,2.49-19.48,4.67-29.06l-.37.42C401.46,106.26,396.89,123,391,139.25c-.25.68-1.31.46-1.11-.27,3.66-14,8.64-28.38,16.56-40.53,6.45-9.94,15.47-17.39,24.11-25.26a139.88,139.88,0,0,0-27,11.92c1.2-1.36,2.49-2.63,3.82-3.87a90.74,90.74,0,0,1,24.28-9.1c2.17-2,4.3-4,6.36-6.12,11.49-11.76,20.82-25.44,32.56-37,2.5-2.46,5.07-4.85,7.68-7.19-2.5,1.05-4.93,2.14-7.32,3.27a151.21,151.21,0,0,0-19.7,11.16q1.44-1.77,2.92-3.46c.28-.33.57-.65.87-1A82.68,82.68,0,0,1,472.7,22.7a69.4,69.4,0,0,1,7.16-2.23C486.3,14.81,493.05,9.49,500,4.47Z" style="fill: rgb(38, 50, 56); transform-origin: 444.933px 72.0647px;" id="eltypaovpvhn" class="animable"></path><path d="M500,0V3c-1,.22-2,.47-3,.76a38.77,38.77,0,0,0-10.44,4.55c-5.66,3.6-9.92,8.86-13.85,14.38-.56.79-1.12,1.59-1.67,2.39-2.16,3.13-4.27,6.28-6.52,9.2A232.55,232.55,0,0,1,442.16,59.4c-6.05,5.86-13,11.74-21.31,13.88l-.94.21a19.42,19.42,0,0,1-4,.43h-.3c-5.56,0-10.45-2.36-15.73-4.15-1.15-.38-2.33-.75-3.54-1.06-.92-.24-1.88-.44-2.85-.6-11.25-1.84-20,7.3-27.16,14.59C360,89.09,353.51,95,344.62,97.35c-8.46,2.24-17.7,2.53-25.83-.35-.89-.32-1.78-.63-2.66-.92l-1.08-.36c-4.91-1.6-9.57-2.88-13.92-3.86l-3.22-.69c-27.54-5.56-43.85-.21-44.06-.26,14.39-15,29-29.81,43.66-44.6,5.9-6,11.62-12.9,18.73-17.52l.91-.58a30.67,30.67,0,0,1,2.76-1.49,40,40,0,0,1,5.83-2.27c2-.64,4.1-1.14,6.2-1.59,3.15-.69,6.34-1.23,9.47-1.84,19.82-3.94,39.61-8.54,58.52-15.75,1.2-.46,2.4-.9,3.59-1.32q2.53-.92,5.05-1.72c.49-.17,1-.32,1.47-.46,1-.33,2-.63,3-.93s2-.57,3-.84Z" style="fill: rgb(55, 71, 79); transform-origin: 376.925px 49.5475px;" id="elnvuz4eimgn" class="animable"></path><path d="M500,0V2.69c-2.32.1-4.65.21-7,.34-7.17.38-14.34.89-21.49,1.58-9.24,6.53-15.41,15.74-23.11,24.15q-1.92,2.1-4,4.09a112.36,112.36,0,0,1-20.76,23.89c-.41.35-1-.22-.61-.62,6.3-6.38,12.07-12.91,17.64-19.8a104.53,104.53,0,0,1-22.44,15.25.6.6,0,0,1-.6-1A125.37,125.37,0,0,0,449.9,24c5.48-6.44,10.73-14.09,17.82-19-10.35,1.1-20.65,2.59-30.88,4.69a275.56,275.56,0,0,0-27,7.27C399.11,25.51,389.34,35,379.26,44.34c-10.57,9.78-21.86,19-35.41,24.23-.39.16-.69-.51-.3-.69,24.7-11.46,40.71-33.95,62.12-49.59-7.52,2.41-15,4.89-22.65,7.12-16.62,4.89-34.2,6.15-50.64,11.53-8,9-13.57,20.36-23.31,27.63-.35.27-.8-.3-.47-.6,8.5-8,14.32-18.18,22.32-26.55l-.62.21c-19.59,6.88-34.35,21-50.1,33.92-.66.53-1.6-.34-1-1,12.15-11.89,25.92-23.45,41.29-30.94,12.54-6.13,26.16-8.21,39.66-10.93a165.85,165.85,0,0,0-34.45-4.28c2-.64,4.1-1.14,6.2-1.59A106.65,106.65,0,0,1,362,28.37c3.39-.7,6.77-1.46,10.13-2.34,18.74-4.92,36.45-13.1,55.33-17.68,4-1,8.06-1.84,12.11-2.62A184.67,184.67,0,0,0,403.52,4q2.53-.92,5.05-1.72c.49-.17,1-.32,1.47-.46a93.49,93.49,0,0,1,31.88,3.51A340.7,340.7,0,0,1,482.22.54Q487.91.19,493.58,0Z" style="fill: rgb(38, 50, 56); transform-origin: 389.504px 35.8568px;" id="elpnvclu5n7ci" class="animable"></path><g id="eljbagfz2zgr" class=""><path d="M304.12,92.57c-.54,2.39-6.3-.62-18.94,0s-30.43,3.78-32.37,7.83c-1,2.09-1.21,20.93-1.16,29.4,9.19,45,41.93,70.94,41.93,113,0,28.79-17.35,54.42-43.6,54.42s-43.56-25.63-43.56-54.42c0-41.58,32-68.82,41.6-113,.15-8.39.23-25.07,0-27.15-.52-4.71.06-12.86,4.12-16.13s7.54-3.3,9.48-5,4-4.13,5.63-4.51c2.35-.53-4.91,7.06-1.14,7.73s9.76-2,17.07,0S304.66,90.17,304.12,92.57Z" style="fill: #8CCBBE; opacity: 0.6; transform-origin: 255.277px 187.102px;" class="animable" id="eloosp41i2cd"></path></g><g id="elowannhi9809" class=""><path d="M250,126c.75,26.81-8.57,52.54-18.72,76.7-8.41,20.1-14.93,55.24-2.51,74.4l-.4.47c-2.79-2-20.73-17.18-11.12-55.76,4.86-19.51,18.8-38.41,24.95-57.33A134.25,134.25,0,0,0,250,126Z" style="fill: rgb(255, 255, 255); opacity: 0.6; transform-origin: 232.244px 201.785px;" class="animable" id="elba8gcb7rema"></path></g><path d="M261.86,167c3.82,17.79,9.53,29.25,16.13,47.61,5.47,15.28,8.3,43.13-1,57.17l.28.37c2-1.4,13.48-12.06,9.34-41.5-1.55-11.08-7.52-23.23-16-40.1C265.31,180.07,261.86,167,261.86,167Z" style="fill: #8CCBBE; transform-origin: 274.682px 219.575px;" id="el8tr92v5gy6" class="animable"></path><g id="el4n66w9zmbcc" class=""><path d="M250,95.08c.13-3.28,1.23-7,4.46-8.58,3-1.32,5.79-2.27,8.78-3.58a15.19,15.19,0,0,1-3.64,3.19c-2.47,1.61-5.66,2.23-7.27,4.91-.8,1.19-1.38,2.72-2.33,4.06Z" style="fill: rgb(255, 255, 255); opacity: 0.6; transform-origin: 256.62px 89px;" class="animable" id="elhm66ot9fyf7"></path></g></g><defs>     <filter id="active" height="200%">         <feMorphology in="SourceAlpha" result="DILATED" operator="dilate" radius="2"></feMorphology>                <feFlood flood-color="#32DFEC" flood-opacity="1" result="PINK"></feFlood>        <feComposite in="PINK" in2="DILATED" operator="in" result="OUTLINE"></feComposite>        <feMerge>            <feMergeNode in="OUTLINE"></feMergeNode>            <feMergeNode in="SourceGraphic"></feMergeNode>        </feMerge>    </filter>    <filter id="hover" height="200%">        <feMorphology in="SourceAlpha" result="DILATED" operator="dilate" radius="2"></feMorphology>                <feFlood flood-color="#ff0000" flood-opacity="0.5" result="PINK"></feFlood>        <feComposite in="PINK" in2="DILATED" operator="in" result="OUTLINE"></feComposite>        <feMerge>            <feMergeNode in="OUTLINE"></feMergeNode>            <feMergeNode in="SourceGraphic"></feMergeNode>        </feMerge>            <feColorMatrix type="matrix" values="0   0   0   0   0                0   1   0   0   0                0   0   0   0   0                0   0   0   1   0 "></feColorMatrix>    </filter></defs></svg>